<svg width="47" height="60" fill="none" xmlns="http://www.w3.org/2000/svg"><path d="M0 30.861V29.14L18.547 0l4.32 2.097c.695.35 1.216.8 1.564 1.349.348.549.521 1.148.521 1.797 0 .85-.248 1.673-.744 2.472l-11.843 19.55c-.696 1.2-1.39 2.123-2.086 2.773.745.699 1.44 1.598 2.085 2.696l11.844 19.55c.248.4.422.825.521 1.274.149.45.224.874.224 1.273 0 1.399-.696 2.422-2.086 3.072L18.547 60 0 30.861Zm22.047 0V29.14L40.594 0l4.32 2.097c.696.35 1.217.8 1.565 1.349.347.549.521 1.148.521 1.797 0 .85-.248 1.673-.745 2.472l-11.843 19.55c-.695 1.2-1.39 2.123-2.085 2.773.744.699 1.44 1.598 2.085 2.696l11.843 19.55c.248.4.422.825.521 1.274.15.45.224.874.224 1.273 0 1.399-.695 2.422-2.086 3.072L40.594 60 22.047 30.861Z" fill="#fff"/></svg>
