<svg width="260" height="416" fill="none" xmlns="http://www.w3.org/2000/svg"><g clip-path="url(#a)" fill="#fff"><path d="M174.395 356.769c1.647-1.069 1.784-3.777.305-6.049-1.478-2.272-4.012-3.247-5.659-2.178-1.647 1.069-1.784 3.777-.305 6.049 1.478 2.272 4.012 3.247 5.659 2.178ZM92.184 316.366c1.611-.668 2.312-2.664 1.566-4.458-.746-1.794-2.656-2.706-4.267-2.038-1.611.668-2.313 2.664-1.567 4.458.746 1.793 2.657 2.706 4.268 2.038ZM189.845 412.946c.276-2.109-2.587-4.222-6.394-4.72-3.808-.497-7.118.81-7.395 2.92-.276 2.109 2.587 4.222 6.395 4.719 3.807.498 7.118-.809 7.394-2.919ZM69.46 9.347c.766-2.631.074-5.145-1.545-5.615-1.62-.47-3.553 1.282-4.319 3.914-.765 2.631-.073 5.145 1.546 5.615 1.62.47 3.553-1.282 4.319-3.914ZM104.132 23.838c3.724 0 6.743-1.674 6.743-3.74 0-2.066-3.019-3.74-6.743-3.74s-6.743 1.674-6.743 3.74c0 2.066 3.019 3.74 6.743 3.74ZM121.178 23.983c2.093-3.16 2.148-6.806.123-8.143-2.024-1.337-5.362.14-7.455 3.3-2.093 3.16-2.148 6.806-.123 8.143 2.025 1.337 5.363-.14 7.455-3.3ZM42.285 5.19c.663-2.28-.272-4.556-2.088-5.083-1.816-.527-3.825.894-4.489 3.174-.663 2.28.272 4.556 2.087 5.082 1.816.527 3.826-.894 4.49-3.174ZM76.923 7.993c1.504-.977 1.63-3.45.28-5.525C75.853.394 73.537-.497 72.032.48c-1.504.977-1.63 3.45-.28 5.525 1.35 2.074 3.665 2.965 5.17 1.988ZM74.973 92.195c.814-1.524-.462-3.79-2.85-5.06-2.387-1.271-4.982-1.066-5.795.457-.813 1.524.463 3.79 2.85 5.06 2.388 1.271 4.982 1.066 5.795-.457ZM147.998 375.38c1.567-3.573 1.055-7.249-1.144-8.211-2.199-.961-5.252 1.155-6.818 4.728-1.567 3.573-1.055 7.249 1.144 8.211 2.199.961 5.252-1.156 6.818-4.728ZM124.901 370.506c.996-2.27.467-4.694-1.18-5.415-1.647-.72-3.79.536-4.785 2.806-.996 2.27-.467 4.695 1.18 5.415 1.647.72 3.79-.536 4.785-2.806ZM172.016 362.509c.943-2.15.317-4.501-1.398-5.251-1.714-.75-3.868.385-4.811 2.536-.943 2.15-.317 4.5 1.397 5.25 1.715.75 3.869-.385 4.812-2.535ZM76.948 242.388c1.273-1.094.857-3.659-.929-5.73-1.785-2.071-4.264-2.862-5.536-1.769-1.272 1.094-.856 3.66.93 5.731 1.785 2.07 4.263 2.862 5.535 1.768ZM99.033 298.479c.84-2.891.08-5.653-1.698-6.169-1.78-.516-3.903 1.409-4.744 4.299-.841 2.891-.08 5.653 1.698 6.169 1.78.516 3.903-1.409 4.744-4.299ZM180.151 300.031c1.681-1.679.69-5.391-2.214-8.29-2.904-2.9-6.62-3.89-8.301-2.211-1.681 1.679-.69 5.39 2.214 8.29 2.903 2.9 6.62 3.889 8.301 2.211ZM189.388 193.874c2.535-2.532 1.039-8.13-3.34-12.504-4.38-4.374-9.986-5.868-12.521-3.336-2.535 2.532-1.04 8.13 3.34 12.504 4.38 4.374 9.986 5.868 12.521 3.336ZM162.325 259.591c.055-1.309-1.691-2.447-3.9-2.54-2.209-.094-4.046.891-4.101 2.201-.056 1.309 1.69 2.446 3.9 2.54 2.209.093 4.045-.892 4.101-2.201ZM118.45 308.947c.688-2.365-.145-4.686-1.861-5.184-1.716-.497-3.665 1.016-4.353 3.381-.688 2.365.145 4.686 1.861 5.184 1.716.498 3.665-1.016 4.353-3.381ZM184.511 156.33c.653-2.247-.136-4.45-1.763-4.923-1.627-.472-3.475.967-4.129 3.214-.653 2.246.136 4.45 1.763 4.922 1.626.472 3.475-.967 4.129-3.213ZM153.506 262.548c1.217-3.232-1.903-7.394-6.967-9.295-5.065-1.901-10.157-.822-11.374 2.41-1.216 3.233 1.903 7.394 6.968 9.296 5.065 1.901 10.157.822 11.373-2.411ZM111.263 271.507c1.791-2.704 1.838-5.823.107-6.967-1.732-1.143-4.587.121-6.378 2.824-1.79 2.704-1.838 5.823-.106 6.967 1.732 1.143 4.587-.121 6.377-2.824ZM114.063 293.674c1.728-1.121 1.869-3.967.315-6.355-1.554-2.388-4.215-3.415-5.943-2.293-1.728 1.121-1.869 3.967-.314 6.355 1.554 2.388 4.214 3.415 5.942 2.293ZM118.43 325.303c2.006-1.726 1.352-5.769-1.461-9.031-2.812-3.262-6.719-4.509-8.725-2.783-2.006 1.725-1.352 5.768 1.46 9.03 2.813 3.263 6.72 4.509 8.726 2.784ZM196.023 371.634c2.001-1.998.821-6.414-2.633-9.864-3.455-3.45-7.877-4.628-9.878-2.63-2 1.997-.821 6.414 2.634 9.864 3.455 3.45 7.877 4.628 9.877 2.63ZM98.834 326.423c1.877-1.218 2.038-4.296.36-6.874-1.679-2.579-4.56-3.682-6.438-2.464-1.876 1.218-2.037 4.296-.36 6.875 1.68 2.579 4.561 3.682 6.438 2.463ZM155.304 357.011c3.828 0 6.932-1.721 6.932-3.845s-3.104-3.845-6.932-3.845c-3.829 0-6.932 1.721-6.932 3.845s3.103 3.845 6.932 3.845ZM136.003 354.474c.637-2.187-.133-4.333-1.72-4.794-1.586-.46-3.387.94-4.024 3.128-.636 2.187.134 4.333 1.72 4.793 1.586.461 3.388-.94 4.024-3.127Z"/><path d="M127.071 323.202c2.023-3.048 2.081-6.566.13-7.857-1.95-1.291-5.172.134-7.195 3.182-2.022 3.049-2.081 6.567-.13 7.858 1.951 1.291 5.172-.134 7.195-3.183ZM136.583 345.192c1.683-1.08 1.834-3.84.337-6.164-1.496-2.325-4.073-3.334-5.755-2.253-1.683 1.08-1.834 3.84-.337 6.164 1.496 2.325 4.073 3.333 5.755 2.253ZM157.963 348.139c2.849-.591 4.845-2.576 4.459-4.432-.387-1.857-3.01-2.882-5.859-2.291-2.849.591-4.845 2.575-4.459 4.432.387 1.857 3.01 2.882 5.859 2.291ZM170.045 267.654c1.444-1.109 1.059-4.029-.861-6.522-1.919-2.493-4.645-3.616-6.09-2.507-1.444 1.109-1.059 4.029.861 6.522 1.919 2.493 4.646 3.616 6.09 2.507ZM193.658 290.446c.748-1.401-.429-3.487-2.629-4.658-2.2-1.171-4.59-.985-5.338.417-.748 1.401.43 3.486 2.63 4.657 2.2 1.172 4.589.985 5.337-.416ZM201.843 308.994c2.702-.202 4.785-1.792 4.653-3.553-.132-1.76-2.429-3.023-5.13-2.821-2.702.202-4.785 1.792-4.653 3.553.132 1.76 2.429 3.023 5.13 2.821ZM83.718 303.359c1.41-.923 1.333-3.53-.172-5.821-1.506-2.291-3.869-3.399-5.279-2.475-1.41.924-1.333 3.53.172 5.821 1.506 2.291 3.87 3.399 5.28 2.475ZM75.027 283.19c2.344-5.345 1.579-10.844-1.709-12.281-3.287-1.438-7.853 1.729-10.197 7.074-2.343 5.345-1.578 10.844 1.71 12.282 3.287 1.437 7.852-1.73 10.196-7.075Z"/><path d="M81.673 292.205c.908-2.069.308-4.33-1.34-5.051-1.647-.72-3.718.373-4.625 2.442s-.307 4.33 1.34 5.05c1.647.721 3.718-.372 4.625-2.441ZM189.507 133.234c.969-2.21.327-4.626-1.433-5.396-1.761-.77-3.974.397-4.943 2.607-.969 2.21-.327 4.626 1.433 5.396 1.761.77 3.973-.397 4.943-2.607ZM181.631 228.752c1.877-1.614 1.266-5.397-1.365-8.449-2.632-3.052-6.287-4.217-8.165-2.603-1.877 1.615-1.266 5.398 1.366 8.45 2.631 3.052 6.286 4.217 8.164 2.602ZM198.73 173.296c.744-2.557.074-5-1.498-5.456-1.571-.456-3.448 1.248-4.192 3.805-.744 2.558-.073 5.001 1.498 5.457 1.571.456 3.448-1.248 4.192-3.806ZM262.563 174.782c1.313-1.31.536-4.211-1.734-6.479-2.271-2.267-5.175-3.043-6.488-1.732-1.312 1.311-.536 4.212 1.734 6.479 2.271 2.268 5.176 3.043 6.488 1.732ZM227.156 132.703c.06-1.413-1.823-2.641-4.206-2.742-2.383-.101-4.363.963-4.423 2.376-.06 1.413 1.823 2.641 4.206 2.742 2.383.101 4.363-.963 4.423-2.376ZM236.81 184.406c6.248 0 11.313-2.809 11.313-6.274s-5.065-6.273-11.313-6.273-11.314 2.808-11.314 6.273 5.066 6.274 11.314 6.274ZM208.932 178.953c.662-2.276-.138-4.509-1.787-4.987-1.649-.479-3.523.978-4.185 3.255-.662 2.276.138 4.509 1.787 4.987 1.649.479 3.523-.978 4.185-3.255ZM245.941 137.572c.605-1.606-.947-3.673-3.465-4.618-2.517-.946-5.048-.41-5.653 1.195-.604 1.606.947 3.673 3.465 4.618 2.518.945 5.049.41 5.653-1.195ZM191.97 258.742c1.374-4.723-.561-9.436-4.323-10.527-3.762-1.092-7.925 1.852-9.299 6.575-1.374 4.722.562 9.435 4.324 10.527 3.761 1.091 7.924-1.853 9.298-6.575ZM244.089 158.545c2.784-.578 4.736-2.518 4.358-4.333-.378-1.815-2.941-2.818-5.726-2.24-2.785.578-4.736 2.518-4.359 4.333.378 1.815 2.942 2.818 5.727 2.24ZM218.724 224.904c.769-2.643.073-5.167-1.554-5.639-1.627-.473-3.569 1.287-4.338 3.93-.769 2.642-.073 5.167 1.554 5.639 1.627.472 3.569-1.287 4.338-3.93ZM185.981 42.325c.758-2.605.075-5.094-1.526-5.559-1.601-.464-3.514 1.272-4.272 3.877-.758 2.606-.074 5.094 1.527 5.559 1.601.464 3.513-1.271 4.271-3.877ZM206.156 290.906c.758-5.786-1.237-10.817-4.455-11.237-3.218-.421-6.442 3.929-7.199 9.715-.758 5.786 1.237 10.817 4.455 11.237 3.219.42 6.442-3.929 7.199-9.715ZM213.983 327.911c.631-2.169-.135-4.298-1.71-4.755-1.575-.457-3.363.931-3.994 3.1-.631 2.169.134 4.297 1.71 4.754 1.575.457 3.363-.93 3.994-3.099ZM240.348 282.029c1.376-1.373.566-4.409-1.808-6.78-2.374-2.371-5.414-3.179-6.789-1.806-1.376 1.374-.566 4.409 1.808 6.78 2.374 2.371 5.414 3.18 6.789 1.806Z"/><path d="M248.05 286.874c.602-1.602-.944-3.665-3.455-4.607-2.511-.942-5.035-.408-5.637 1.194-.603 1.602.943 3.664 3.454 4.607 2.511.942 5.035.408 5.638-1.194ZM249.274 380.034c1.307-1.305.533-4.195-1.73-6.454-2.262-2.259-5.155-3.032-6.463-1.727-1.307 1.305-.532 4.195 1.73 6.454 2.262 2.26 5.156 3.033 6.463 1.727ZM257.095 385.043c.592-1.573-.925-3.598-3.389-4.523-2.464-.925-4.941-.399-5.533 1.174-.592 1.572.926 3.597 3.389 4.522 2.464.925 4.941.399 5.533-1.173ZM190.537 212.913c1.321-1.319.54-4.238-1.744-6.519-2.284-2.281-5.206-3.061-6.527-1.742-1.321 1.32-.54 4.238 1.744 6.519 2.284 2.281 5.207 3.061 6.527 1.742ZM198.294 217.878c.589-1.565-.921-3.581-3.374-4.502-2.453-.92-4.919-.398-5.509 1.168-.589 1.566.922 3.582 3.375 4.502 2.453.921 4.919.398 5.508-1.168ZM97.713 64.832c1.27-1.267.522-4.068-1.67-6.256-2.191-2.189-4.996-2.936-6.265-1.668-1.269 1.267-.521 4.068 1.67 6.257 2.191 2.188 4.997 2.935 6.265 1.667ZM105.735 70.018c.602-1.598-.94-3.656-3.443-4.596-2.504-.94-5.021-.406-5.623 1.193-.601 1.598.94 3.655 3.444 4.595s5.021.406 5.622-1.192ZM229.01 195.487c1.803-2.722 1.853-5.862.112-7.012-1.742-1.151-4.615.124-6.418 2.847-1.804 2.723-1.854 5.863-.112 7.013 1.741 1.15 4.615-.125 6.418-2.848ZM204.206 194.204c1.163-3.997-.475-7.986-3.658-8.91-3.184-.924-6.707 1.568-7.87 5.565-1.163 3.997.475 7.986 3.659 8.91 3.183.924 6.707-1.568 7.869-5.565ZM237.231 215.379c1.689-1.097 1.829-3.874.313-6.204-1.517-2.33-4.115-3.33-5.804-2.234-1.69 1.096-1.83 3.874-.313 6.204 1.516 2.33 4.114 3.33 5.804 2.234ZM71.534 22.73c1.413-1.086 1.038-3.942-.84-6.38-1.876-2.44-4.544-3.536-5.957-2.45-1.414 1.084-1.038 3.94.839 6.38 1.877 2.437 4.544 3.534 5.958 2.45ZM197.147 100.832c1.009-2.302.475-4.76-1.194-5.49-1.668-.73-3.839.545-4.849 2.847-1.009 2.302-.475 4.759 1.194 5.489 1.669.73 3.84-.545 4.849-2.846ZM206.941 110.846c2.573-1.229 3.279-5.106 1.576-8.659-1.702-3.553-5.168-5.437-7.74-4.208-2.573 1.23-3.278 5.107-1.576 8.66s5.168 5.437 7.74 4.207ZM47.013 52.267c1.817-1.19 1.717-4.548-.222-7.5-1.94-2.951-4.984-4.379-6.8-3.189-1.817 1.19-1.718 4.548.221 7.5 1.94 2.952 4.984 4.38 6.801 3.19ZM254.426 217.526c.676-2.317-.136-4.59-1.814-5.079-1.678-.489-3.587.992-4.264 3.308-.676 2.316.136 4.59 1.814 5.079 1.678.489 3.587-.992 4.264-3.308ZM249.106 226.912c1.387-.909 1.311-3.475-.171-5.73-1.482-2.256-3.808-3.347-5.196-2.438-1.387.909-1.311 3.474.171 5.73 1.482 2.256 3.808 3.347 5.196 2.438ZM108.353 339.211c.672-2.309-.142-4.575-1.817-5.061-1.675-.486-3.577.992-4.249 3.301-.672 2.31.141 4.576 1.816 5.062 1.675.486 3.578-.992 4.25-3.302ZM103.25 348.928c1.4-.917 1.322-3.508-.175-5.786-1.497-2.278-3.845-3.381-5.246-2.464-1.4.918-1.322 3.508.175 5.787 1.497 2.278 3.845 3.381 5.246 2.463ZM273.093 158.395c1.589-1.963.09-5.806-3.349-8.583s-7.516-3.437-9.105-1.475c-1.59 1.963-.09 5.806 3.349 8.583s7.515 3.438 9.105 1.475ZM18.003 112.118c1.554-1.193 1.14-4.336-.925-7.018-2.065-2.683-5-3.891-6.553-2.697-1.555 1.193-1.14 4.335.924 7.018 2.066 2.683 5 3.89 6.554 2.697ZM31.033 100.404c.31-2.362-2.896-4.728-7.159-5.285-4.263-.556-7.97.907-8.279 3.269-.309 2.361 2.896 4.727 7.16 5.284 4.262.557 7.969-.907 8.278-3.268ZM128.221 342.203c1.847-4.212.868-8.709-2.186-10.045-3.054-1.336-7.028.995-8.875 5.207-1.847 4.212-.868 8.709 2.187 10.045 3.054 1.336 7.027-.996 8.874-5.207ZM118.397 357.926c2.332-1.115 2.973-4.628 1.43-7.847-1.542-3.22-4.683-4.926-7.016-3.812-2.332 1.115-2.973 4.628-1.43 7.848 1.542 3.219 4.683 4.925 7.016 3.811ZM239.531 235.971c1.784-4.067.839-8.409-2.109-9.698-2.948-1.29-6.784.962-8.568 5.029-1.783 4.067-.839 8.409 2.11 9.699 2.948 1.289 6.784-.963 8.567-5.03ZM229.852 251.679c2.291-1.094 2.921-4.543 1.406-7.704-1.514-3.16-4.598-4.834-6.889-3.74-2.29 1.095-2.92 4.544-1.406 7.704s4.599 4.835 6.889 3.74ZM212.982 130.113c1.81-4.127.85-8.534-2.145-9.844-2.994-1.309-6.888.975-8.698 5.102-1.81 4.127-.85 8.534 2.145 9.844 2.994 1.309 6.888-.975 8.698-5.102ZM203.035 145.386c2.131-1.018 2.716-4.228 1.307-7.169-1.41-2.942-4.279-4.501-6.41-3.483-2.13 1.019-2.715 4.228-1.306 7.169 1.409 2.942 4.279 4.501 6.409 3.483ZM230.182 157.446c1.847-4.212.868-8.709-2.187-10.045-3.054-1.336-7.027.996-8.874 5.208-1.847 4.211-.868 8.709 2.186 10.044 3.054 1.336 7.028-.995 8.875-5.207ZM220.142 172.718c2.148-1.027 2.737-4.263 1.316-7.228-1.42-2.966-4.313-4.538-6.461-3.512-2.148 1.027-2.738 4.263-1.317 7.228 1.421 2.966 4.314 4.538 6.462 3.512ZM125.81 141.474c1.313-2.993.617-6.19-1.553-7.139-2.171-.949-4.994.708-6.307 3.702-1.313 2.994-.618 6.19 1.553 7.139 2.17.95 4.994-.708 6.307-3.702ZM147.142 95.276c1.313-2.994.617-6.19-1.553-7.14-2.171-.95-4.995.708-6.308 3.702-1.312 2.994-.617 6.19 1.554 7.14 2.17.949 4.994-.709 6.307-3.702ZM249.07 95.687c.623-2.13-.125-4.223-1.67-4.673-1.545-.45-3.302.913-3.924 3.044-.623 2.13.125 4.223 1.67 4.673 1.545.45 3.302-.912 3.924-3.044Z"/><path d="M221.729 245.363c.617-1.637-.966-3.747-3.534-4.711-2.569-.964-5.151-.418-5.767 1.22-.616 1.638.966 3.747 3.534 4.711 2.569.964 5.151.418 5.767-1.22ZM202.479 238.772c1.374-1.055 1.006-3.834-.822-6.208-1.827-2.375-4.423-3.444-5.796-2.39-1.374 1.055-1.006 3.835.821 6.209 1.828 2.374 4.423 3.444 5.797 2.389ZM203.327 251.85c.842-1.578-.482-3.926-2.958-5.244-2.476-1.318-5.166-1.107-6.008.471-.843 1.578.482 3.926 2.958 5.244 2.475 1.318 5.165 1.107 6.008-.471ZM251.83 328.264c1.414-4.859-.58-9.71-4.452-10.833-3.873-1.124-8.159 1.905-9.573 6.764-1.413 4.86.58 9.71 4.453 10.834 3.873 1.123 8.158-1.905 9.572-6.765ZM262.519 320.454c.782-1.466-.447-3.646-2.746-4.87-2.299-1.224-4.797-1.027-5.579.438-.783 1.466.447 3.647 2.745 4.87 2.299 1.224 4.797 1.028 5.58-.438ZM205.35 268.155c2.636-.197 4.669-1.75 4.54-3.468-.129-1.718-2.37-2.951-5.006-2.754-2.637.197-4.669 1.75-4.541 3.468.129 1.718 2.371 2.951 5.007 2.754ZM189.8 84.23c1.215-1.212.498-3.894-1.601-5.99-2.098-2.095-4.784-2.811-5.998-1.598-1.215 1.212-.498 3.894 1.601 5.99 2.098 2.096 4.784 2.812 5.998 1.599ZM198.718 120.632c1.247-1.245.508-4.002-1.65-6.158-2.159-2.156-4.92-2.894-6.167-1.648-1.247 1.245-.508 4.003 1.65 6.158 2.159 2.156 4.92 2.894 6.167 1.648ZM171.124 245.412c3.539 0 6.408-1.591 6.408-3.552 0-1.962-2.869-3.552-6.408-3.552s-6.408 1.59-6.408 3.552c0 1.961 2.869 3.552 6.408 3.552ZM191.807 90.483c.607-1.612-.948-3.688-3.473-4.636s-5.064-.409-5.671 1.204c-.607 1.612.948 3.688 3.473 4.636s5.064.409 5.671-1.204ZM181.422 123.45c3.922-.814 6.67-3.545 6.139-6.099-.532-2.555-4.142-3.966-8.064-3.152-3.923.814-6.671 3.545-6.139 6.099.531 2.555 4.142 3.966 8.064 3.152ZM269.046 91.499c1.767-4.028 1.19-8.173-1.288-9.256-2.478-1.084-5.919 1.303-7.686 5.33-1.766 4.03-1.189 8.173 1.289 9.257 2.478 1.084 5.919-1.303 7.685-5.331ZM207.534 85.066c1.324-1.017.97-3.697-.791-5.986-1.762-2.289-4.264-3.32-5.589-2.302-1.325 1.017-.971 3.697.791 5.985 1.762 2.289 4.264 3.32 5.589 2.303ZM103.729 146.286c1.682-.625 2.733-1.969 2.349-3.002-.385-1.033-2.061-1.364-3.743-.739-1.682.624-2.733 1.968-2.349 3.001.385 1.034 2.061 1.365 3.743.74ZM236.336 84.53c.268-2.045-2.506-4.093-6.195-4.574-3.689-.482-6.896.785-7.164 2.83-.267 2.044 2.506 4.092 6.195 4.573 3.689.482 6.896-.785 7.164-2.83Z"/><path d="M241.938 83.348c.935-2.132.438-4.41-1.11-5.087-1.549-.677-3.562.502-4.497 2.635-.935 2.132-.438 4.41 1.111 5.087 1.548.677 3.561-.502 4.496-2.635ZM221.882 120.852c.798-1.496-.456-3.722-2.803-4.971-2.346-1.249-4.896-1.049-5.695.448-.799 1.496.456 3.722 2.803 4.971 2.346 1.249 4.896 1.049 5.695-.448ZM120.34 52.368c.839-1.571-.477-3.907-2.939-5.218-2.463-1.311-5.139-1.1-5.977.471-.839 1.572.477 3.908 2.939 5.219 2.463 1.31 5.139 1.1 5.977-.472ZM258.282 120.439c2.43-2.798 2.946-6.325 1.152-7.878-1.793-1.553-5.216-.544-7.646 2.255-2.43 2.798-2.946 6.325-1.152 7.878 1.793 1.553 5.216.543 7.646-2.255ZM218.18 100.779c5.253-.392 9.304-3.484 9.048-6.904-.257-3.42-4.723-5.876-9.976-5.483-5.253.393-9.304 3.484-9.048 6.905.257 3.42 4.723 5.875 9.976 5.482ZM223.26 73.132c.209-1.196-1.256-2.45-3.271-2.8-2.015-.35-3.817.335-4.026 1.53-.209 1.197 1.256 2.45 3.271 2.801 2.015.35 3.818-.335 4.026-1.531ZM205.375 73.198c.804-1.506-.46-3.747-2.823-5.006-2.364-1.258-4.932-1.056-5.736.45-.804 1.507.46 3.748 2.823 5.006 2.364 1.259 4.932 1.057 5.736-.45ZM234.451 67.924c2.137-2.46 2.592-5.56 1.018-6.924-1.575-1.364-4.583-.474-6.719 1.986-2.137 2.46-2.592 5.56-1.018 6.924 1.575 1.363 4.583.474 6.719-1.986ZM260.275 147.358c.997-2.274.338-4.759-1.472-5.55-1.81-.792-4.085.41-5.082 2.683-.997 2.274-.338 4.759 1.472 5.55 1.81.792 4.085-.41 5.082-2.683ZM222.565 68.645c2.454-1.173 3.129-4.869 1.506-8.255-1.622-3.386-4.927-5.18-7.381-4.008-2.455 1.173-3.129 4.869-1.507 8.255 1.623 3.386 4.928 5.18 7.382 4.008ZM133.784 271.256c.942-2.147.441-4.439-1.118-5.121-1.559-.682-3.586.505-4.527 2.652-.942 2.146-.441 4.439 1.118 5.121 1.559.682 3.586-.506 4.527-2.652ZM110.54 254.67c.222-1.268-1.334-2.598-3.475-2.971-2.14-.372-4.055.354-4.276 1.623-.221 1.268 1.335 2.598 3.475 2.97 2.141.372 4.055-.354 4.276-1.622ZM121.501 249.442c2.139-2.463 2.594-5.568 1.017-6.934-1.578-1.366-4.59-.476-6.729 1.987-2.139 2.464-2.595 5.568-1.017 6.934 1.577 1.366 4.59.476 6.729-1.987ZM109.73 250.423c2.555-1.221 3.256-5.072 1.565-8.6-1.69-3.529-5.132-5.4-7.687-4.179-2.556 1.221-3.257 5.071-1.566 8.6s5.133 5.4 7.688 4.179ZM105.423 111.796c.695-2.655-1.721-5.584-5.395-6.543-3.674-.958-7.216.417-7.91 3.072-.695 2.655 1.72 5.585 5.395 6.543 3.674.959 7.216-.417 7.91-3.072ZM166.331 144.151c.221-1.268-1.335-2.598-3.475-2.97-2.141-.373-4.055.354-4.277 1.622-.221 1.268 1.335 2.598 3.476 2.97 2.14.372 4.055-.354 4.276-1.622ZM155.365 148.298c2.242-2.583 2.72-5.837 1.067-7.269-1.653-1.431-4.812-.498-7.054 2.084-2.243 2.583-2.721 5.838-1.068 7.269 1.654 1.432 4.812.499 7.055-2.084ZM144.222 149.819c2.604-1.244 3.319-5.167 1.597-8.761-1.723-3.595-5.23-5.501-7.834-4.257-2.604 1.245-3.318 5.168-1.596 8.762 1.722 3.595 5.229 5.501 7.833 4.256ZM147.25 118.68c2.569-1.228 3.275-5.098 1.576-8.644-1.699-3.546-5.16-5.426-7.729-4.198-2.569 1.228-3.274 5.098-1.575 8.644 1.699 3.546 5.159 5.425 7.728 4.198ZM190.338 50.25c2.844-.212 5.037-1.886 4.898-3.739-.139-1.852-2.557-3.182-5.401-2.97-2.844.213-5.037 1.887-4.898 3.74.138 1.852 2.557 3.182 5.401 2.97ZM52.94 205.156c.008-1.796-2.356-3.264-5.282-3.278-2.925-.014-5.303 1.43-5.312 3.226-.009 1.796 2.355 3.264 5.28 3.278 2.926.014 5.304-1.43 5.313-3.226ZM96.02 185.264c1.582-1.019 1.52-3.93-.14-6.502-1.66-2.572-4.289-3.832-5.872-2.813-1.583 1.019-1.52 3.93.14 6.502 1.66 2.573 4.288 3.832 5.871 2.813ZM120.304 181.161c4.184-.293 7.44-2.49 7.27-4.908-.169-2.419-3.699-4.142-7.884-3.85-4.184.292-7.44 2.49-7.27 4.908.169 2.418 3.699 4.142 7.884 3.85ZM161.541 112.372c1.456-.938 1.588-3.323.294-5.328-1.294-2.006-3.524-2.872-4.981-1.934-1.456.937-1.588 3.323-.294 5.328 1.294 2.006 3.524 2.871 4.981 1.934ZM85.572 169.657c2.268-1.225 3.471-3.391 2.688-4.838-.784-1.448-3.258-1.629-5.526-.405-2.267 1.224-3.47 3.39-2.687 4.838.783 1.447 3.257 1.629 5.525.405ZM70.955 234.521c1.745-1.123 2.014-3.809.601-5.999-1.413-2.19-3.974-3.054-5.719-1.931-1.745 1.123-2.014 3.809-.6 5.999 1.412 2.19 3.973 3.055 5.718 1.931ZM135.36 248.381c1.481-.951 1.424-3.678-.129-6.09-1.552-2.411-4.012-3.596-5.493-2.644-1.482.951-1.424 3.677.128 6.089 1.553 2.412 4.013 3.596 5.494 2.645ZM185.031 237.198c2.514-2.888 3.251-6.359 1.646-7.752-1.605-1.393-4.944-.181-7.458 2.707-2.514 2.888-3.251 6.359-1.646 7.753 1.604 1.393 4.944.181 7.458-2.708ZM134.452 212.667c.885-3.783-.092-7.245-2.181-7.732-2.09-.488-4.501 2.184-5.386 5.967-.885 3.783.092 7.245 2.181 7.733 2.089.487 4.501-2.185 5.386-5.968ZM163.225 86.742c2.788-1.79 3.042-6.356.569-10.2-2.474-3.842-6.739-5.506-9.527-3.716-2.788 1.79-3.043 6.356-.569 10.199 2.473 3.842 6.739 5.507 9.527 3.717ZM119.603 227.78c2.071-.574 3.021-3.662 2.121-6.897-.899-3.234-3.307-5.39-5.379-4.816-2.071.574-3.021 3.662-2.121 6.897.899 3.234 3.307 5.391 5.379 4.816ZM132.359 224.256c.25-1.782-1.546-3.507-4.011-3.852-2.465-.345-4.666.82-4.916 2.603-.25 1.782 1.545 3.507 4.01 3.852 2.465.345 4.667-.82 4.917-2.603ZM164.185 94.257c.279-1.989-1.725-3.913-4.477-4.298-2.752-.386-5.209.914-5.488 2.903-.279 1.988 1.725 3.913 4.477 4.298 2.752.385 5.209-.915 5.488-2.903ZM179.335 48.778c.282-2.011-1.744-3.957-4.527-4.347-2.782-.39-5.266.925-5.549 2.937-.282 2.011 1.745 3.958 4.527 4.347 2.782.39 5.267-.925 5.549-2.937ZM70.25 259.553c2.18-1.399 2.095-5.406-.187-8.951-2.282-3.545-5.898-5.285-8.076-3.887-2.178 1.399-2.095 5.406.187 8.951 2.282 3.545 5.898 5.285 8.077 3.887ZM149.777 171.928c.103-1.708-2.211-3.237-5.17-3.416-2.958-.178-5.44 1.061-5.544 2.77-.103 1.708 2.211 3.237 5.17 3.416 2.958.178 5.441-1.061 5.544-2.77ZM176.933 160.075c.963-2.558.569-5.073-.879-5.616-1.449-.544-3.404 1.089-4.366 3.646-.963 2.558-.569 5.073.879 5.616 1.449.544 3.404-1.089 4.366-3.646ZM62.418 103.976c1.07-3.199-.96-6.758-4.533-7.949-3.573-1.19-7.336.437-8.405 3.636-1.07 3.198.96 6.757 4.533 7.948 3.573 1.191 7.336-.436 8.405-3.635ZM168.42 161.28c2.929-2.591 4.135-6.009 2.694-7.633-1.441-1.624-4.983-.84-7.912 1.752-2.929 2.591-4.136 6.009-2.695 7.633 1.441 1.624 4.984.84 7.913-1.752ZM92.363 194.464c2.96-2.619 4.18-6.074 2.724-7.715-1.456-1.641-5.037-.848-7.998 1.771-2.96 2.62-4.18 6.074-2.724 7.716 1.456 1.641 5.037.848 7.998-1.772ZM176.137 140.734c1.559-.737 1.997-3.077.977-5.227-1.019-2.149-3.109-3.293-4.668-2.556-1.559.737-1.997 3.077-.978 5.227 1.02 2.149 3.11 3.293 4.669 2.556ZM167.979 178.927c1.733-2.321 1.909-5.117.394-6.246-1.516-1.129-4.15-.164-5.883 2.156-1.733 2.321-1.909 5.117-.393 6.246 1.516 1.129 4.149.164 5.882-2.156ZM171.758 122.446c.237-1.741-1.875-3.465-4.716-3.85-2.841-.386-5.337.714-5.573 2.455-.237 1.742 1.874 3.466 4.716 3.851 2.841.385 5.336-.714 5.573-2.456ZM179.142 105.203c.248-1.825-1.966-3.633-4.945-4.036-2.979-.404-5.595.748-5.843 2.574-.249 1.825 1.965 3.633 4.944 4.036 2.979.404 5.596-.748 5.844-2.574ZM185.525 281.479c3.79-.786 6.446-3.428 5.931-5.899-.514-2.472-4.003-3.838-7.793-3.051-3.79.786-6.445 3.427-5.931 5.899.514 2.472 4.003 3.838 7.793 3.051ZM212.368 221.573c4.126-.841 7.026-3.703 6.476-6.392-.549-2.69-4.34-4.188-8.466-3.347-4.126.841-7.026 3.703-6.476 6.392.549 2.689 4.34 4.188 8.466 3.347ZM221.131 208.631c.227-1.673-1.796-3.328-4.518-3.697-2.723-.369-5.115.688-5.342 2.361-.227 1.672 1.796 3.328 4.518 3.697 2.723.369 5.115-.688 5.342-2.361ZM102.01 283.584c3.933-.817 6.69-3.555 6.157-6.118-.534-2.562-4.155-3.977-8.088-3.161-3.933.817-6.69 3.555-6.157 6.118.533 2.562 4.154 3.977 8.088 3.161ZM92.857 280.621c.234-1.723-1.852-3.427-4.659-3.808-2.806-.38-5.272.708-5.506 2.43-.234 1.722 1.852 3.427 4.659 3.808 2.807.38 5.272-.708 5.506-2.43ZM227.803 403.519c.771-2.033-1.136-4.638-4.258-5.818-3.122-1.18-6.278-.488-7.048 1.545-.77 2.033 1.136 4.637 4.258 5.818 3.122 1.18 6.278.488 7.048-1.545ZM216.247 398.787c.916-1.084.23-3.168-1.533-4.655s-3.935-1.815-4.851-.731c-.917 1.083-.231 3.167 1.532 4.654 1.763 1.488 3.935 1.815 4.852.732ZM100.485 147.447c.109-1.808-2.338-3.427-5.466-3.616-3.128-.189-5.753 1.124-5.862 2.932-.11 1.808 2.338 3.427 5.466 3.616 3.128.189 5.752-1.124 5.862-2.932ZM102.651 130.941c2.721-2.408 3.842-5.582 2.503-7.091-1.338-1.509-4.629-.78-7.35 1.627-2.721 2.408-3.842 5.583-2.504 7.091 1.339 1.509 4.63.78 7.351-1.627ZM133.665 173.552c2.31-.883 3.724-2.795 3.159-4.271-.566-1.475-2.897-1.956-5.207-1.073-2.311.883-3.725 2.795-3.16 4.271.566 1.476 2.897 1.956 5.208 1.073ZM156.193 138.754c2.231-.315 3.64-3.396 3.146-6.88-.494-3.484-2.704-6.052-4.935-5.737-2.232.316-3.64 3.396-3.146 6.88.494 3.484 2.703 6.053 4.935 5.737ZM173.482 322.071c.204-1.17-1.231-2.396-3.204-2.739-1.973-.344-3.738.326-3.942 1.496-.204 1.169 1.23 2.395 3.203 2.739 1.974.343 3.739-.327 3.943-1.496ZM162.887 326.335c2.293-2.641 2.781-5.969 1.09-7.433-1.691-1.465-4.921-.511-7.214 2.13s-2.782 5.969-1.09 7.434c1.691 1.464 4.921.51 7.214-2.131ZM163.617 316.69c2.212-.313 3.609-3.366 3.119-6.82-.49-3.453-2.68-5.999-4.893-5.686-2.212.312-3.609 3.366-3.119 6.819.49 3.454 2.68 6 4.893 5.687ZM246.28 119.001c.22-1.261-1.327-2.583-3.457-2.953-2.129-.371-4.033.351-4.253 1.612-.22 1.26 1.328 2.582 3.457 2.953 2.129.37 4.034-.352 4.253-1.612ZM235.472 123.267c2.338-2.693 2.835-6.089 1.109-7.583-1.726-1.495-5.021-.524-7.36 2.17-2.339 2.693-2.835 6.089-1.109 7.583 1.726 1.495 5.021.523 7.36-2.17ZM236.162 113.584c2.22-.314 3.621-3.378 3.13-6.843-.491-3.465-2.689-6.019-4.909-5.705-2.221.314-3.622 3.377-3.131 6.842.492 3.465 2.69 6.019 4.91 5.706ZM193.537 338.799c2.172-2.501 2.635-5.652 1.034-7.039-1.601-1.386-4.659-.482-6.831 2.019-2.172 2.502-2.635 5.653-1.034 7.039 1.601 1.386 4.659.482 6.831-2.019ZM182.292 339.99c2.44-1.166 3.11-4.842 1.496-8.211-1.614-3.369-4.901-5.155-7.341-3.989-2.441 1.166-3.11 4.843-1.496 8.212 1.614 3.368 4.9 5.154 7.341 3.988ZM202.061 348.232c2.779-2.458 3.924-5.7 2.557-7.241-1.367-1.54-4.727-.796-7.506 1.663-2.779 2.458-3.924 5.7-2.557 7.241 1.366 1.54 4.727.796 7.506-1.663ZM194.448 329.416c2.255-.319 3.677-3.433 3.178-6.955-.499-3.522-2.732-6.119-4.986-5.8-2.255.319-3.678 3.433-3.178 6.955.499 3.522 2.732 6.119 4.986 5.8ZM136.517 130.145c.718-2.597-1.613-5.505-5.207-6.495-3.594-.991-7.089.311-7.807 2.908-.717 2.597 1.614 5.505 5.208 6.496 3.594.99 7.089-.312 7.806-2.909ZM117.652 152.317c1.516-2.03 1.669-4.477.342-5.465-1.327-.989-3.632-.145-5.148 1.885-1.516 2.029-1.669 4.476-.342 5.465 1.327.988 3.632.144 5.148-1.885ZM31.89 79.69c.008-1.72-2.257-3.124-5.058-3.137-2.802-.014-5.08 1.368-5.089 3.087-.008 1.72 2.256 3.124 5.058 3.137 2.802.014 5.08-1.368 5.088-3.087ZM49.425 95.216c1.33-.856 1.278-3.302-.116-5.463-1.395-2.16-3.603-3.218-4.934-2.362-1.33.856-1.277 3.301.117 5.462 1.395 2.161 3.603 3.219 4.933 2.363ZM92.124 43.465c3.022-.211 5.373-1.798 5.25-3.543-.121-1.745-2.67-2.99-5.693-2.778-3.022.21-5.373 1.797-5.25 3.542.122 1.746 2.67 2.99 5.693 2.779ZM77.096 59.684c.856-3.66-.086-7.007-2.105-7.478-2.018-.47-4.347 2.114-5.204 5.773-.856 3.66.086 7.007 2.104 7.478 2.019.47 4.349-2.114 5.205-5.773ZM49.783 76.658c2.489-2.625 3.24-5.95 1.68-7.426-1.561-1.475-4.844-.543-7.333 2.082s-3.24 5.95-1.68 7.426c1.562 1.476 4.845.544 7.333-2.082ZM78.338 75.713c.46-2.365-1.31-4.698-3.954-5.211-2.645-.513-5.161.987-5.621 3.352-.46 2.364 1.31 4.697 3.954 5.21 2.644.514 5.161-.987 5.621-3.351ZM89.202 55.773c2.514-2.888 3.251-6.359 1.646-7.752-1.605-1.393-4.944-.181-7.458 2.707-2.514 2.889-3.251 6.36-1.647 7.753 1.605 1.393 4.945.18 7.459-2.708Z"/><path d="M70.358 84.28c1.45-.933 1.58-3.31.29-5.309s-3.51-2.862-4.96-1.93c-1.45.934-1.58 3.311-.29 5.31 1.29 1.999 3.51 2.863 4.96 1.93ZM68.288 150.329c1.372-.883 1.495-3.133.274-5.025-1.221-1.892-3.323-2.71-4.696-1.827-1.372.884-1.495 3.133-.274 5.025 1.221 1.892 3.323 2.71 4.696 1.827ZM168.62 67.365c2.39-1.29 3.658-3.572 2.832-5.098-.825-1.526-3.432-1.717-5.823-.427-2.39 1.29-3.658 3.573-2.832 5.099.825 1.525 3.432 1.717 5.823.426ZM37.04 69.257c2.254-.625 3.288-3.982 2.31-7.499-.978-3.517-3.597-5.861-5.85-5.236-2.254.625-3.288 3.982-2.31 7.5.977 3.516 3.597 5.86 5.85 5.235ZM63.267 67.987c.406-2.893-2.512-5.693-6.517-6.253-4.006-.561-7.582 1.33-7.988 4.223-.406 2.893 2.512 5.693 6.517 6.254 4.005.56 7.581-1.33 7.988-4.224ZM85.044 36.066c2.371-4.226 2.056-8.905-.704-10.45s-6.921.628-9.293 4.854c-2.372 4.226-2.057 8.905.704 10.45 2.76 1.545 6.92-.628 9.293-4.854ZM255.749 193.76c1.956-1.5 2.659-3.864 1.57-5.279-1.088-1.415-3.556-1.346-5.512.154-1.955 1.501-2.658 3.864-1.57 5.279 1.089 1.415 3.556 1.346 5.512-.154ZM247.457 200.642c2.367-2.362 3.109-5.452 1.658-6.903-1.451-1.45-4.546-.711-6.913 1.651s-3.109 5.452-1.658 6.903c1.451 1.45 4.547.711 6.913-1.651ZM143.89 64.77c3.222-.225 5.729-1.916 5.598-3.777-.13-1.86-2.848-3.187-6.07-2.962-3.223.225-5.729 1.916-5.599 3.777.13 1.86 2.848 3.187 6.071 2.962ZM120.793 78.174c.861-3.678-.276-7.088-2.538-7.615-2.262-.528-4.794 2.026-5.654 5.704-.861 3.677.276 7.087 2.538 7.615 2.262.528 4.794-2.026 5.654-5.704ZM138.167 80.894c3.568-4.098 4.611-9.026 2.33-11.005-2.28-1.98-7.021-.263-10.589 3.836-3.567 4.098-4.61 9.026-2.33 11.005 2.281 1.98 7.022.263 10.589-3.836ZM94.527 268.464c2.156-1.384 2.074-5.348-.183-8.854-2.257-3.506-5.834-5.227-7.99-3.843-2.156 1.384-2.073 5.349.183 8.855 2.257 3.506 5.835 5.226 7.99 3.842ZM108.425 54.925c2.349-1.269 3.596-3.511 2.785-5.01-.811-1.499-3.373-1.686-5.722-.418-2.35 1.269-3.597 3.511-2.786 5.01.811 1.499 3.373 1.686 5.723.418ZM91.096 85.597c2.276-.631 3.32-4.024 2.331-7.578-.988-3.554-3.634-5.923-5.91-5.292-2.275.631-3.32 4.024-2.331 7.578.988 3.554 3.634 5.923 5.91 5.292ZM163.034 296.693c.828-1.551-.475-3.859-2.91-5.156-2.435-1.296-5.08-1.089-5.908.461-.828 1.551.475 3.859 2.91 5.156 2.435 1.296 5.08 1.09 5.908-.461ZM166.447 280.168c.472-2.429-1.346-4.825-4.063-5.352-2.716-.528-5.301 1.014-5.774 3.443-.473 2.429 1.346 4.825 4.062 5.352 2.717.528 5.302-1.014 5.775-3.443Z"/><path d="M158.292 288.636c1.414-.91 1.541-3.229.282-5.179-1.258-1.95-3.425-2.793-4.84-1.883-1.414.91-1.54 3.229-.282 5.179 1.259 1.951 3.426 2.794 4.84 1.883ZM89.88 108.621c1.529-.983 1.764-3.335.526-5.253-1.237-1.918-3.48-2.676-5.007-1.692-1.528.983-1.763 3.335-.526 5.253 1.238 1.918 3.48 2.675 5.008 1.692ZM142.319 306.087c3.556-1.373 5.633-4.567 4.64-7.134-.994-2.566-4.683-3.534-8.239-2.161-3.556 1.374-5.634 4.568-4.64 7.134.994 2.567 4.682 3.534 8.239 2.161ZM132.638 305.559c.698-1.776-.548-3.925-2.783-4.801-2.235-.875-4.612-.145-5.309 1.631-.698 1.776.548 3.925 2.782 4.801 2.235.875 4.612.145 5.31-1.631ZM108.029 87.136c.252-1.793-1.555-3.53-4.035-3.876-2.481-.348-4.695.825-4.947 2.619-.252 1.794 1.555 3.53 4.035 3.877 2.48.347 4.695-.826 4.947-2.62ZM125.82 61.423c1.31-2.333 1.135-4.916-.39-5.77-1.525-.854-3.823.346-5.132 2.679-1.31 2.333-1.135 4.917.39 5.77 1.525.854 3.823-.346 5.132-2.679ZM142.403 52.955c.151-2.485-3.212-4.71-7.511-4.97-4.299-.26-7.906 1.544-8.057 4.03-.15 2.485 3.213 4.71 7.512 4.97 4.299.26 7.906-1.545 8.056-4.03ZM152.434 43.545c5.617-.993 9.71-4.395 9.142-7.598-.568-3.203-5.582-4.994-11.198-4.001-5.617.993-9.71 4.394-9.142 7.598.568 3.203 5.581 4.994 11.198 4.001ZM106.702 217.158c2.98-.208 5.298-1.773 5.177-3.496-.12-1.722-2.634-2.95-5.614-2.742-2.979.209-5.297 1.774-5.177 3.496.121 1.722 2.634 2.95 5.614 2.742ZM102.764 231.885c3.937-4.523 5.091-9.959 2.577-12.141-2.513-2.182-7.743-.284-11.68 4.239-3.937 4.523-5.09 9.958-2.577 12.141 2.513 2.182 7.743.284 11.68-4.239ZM105.187 205.595c.15-2.474-3.198-4.688-7.478-4.947-4.28-.258-7.871 1.538-8.02 4.011-.15 2.474 3.198 4.689 7.477 4.947 4.28.259 7.871-1.537 8.021-4.011ZM115.269 196.209c5.632-.996 9.735-4.409 9.165-7.623-.57-3.215-5.597-5.013-11.229-4.018-5.632.996-9.735 4.409-9.165 7.624.569 3.214 5.597 5.013 11.229 4.017ZM157.195 53.974c2.743-1.048 4.423-3.316 3.752-5.066-.67-1.749-3.437-2.317-6.18-1.269-2.743 1.048-4.423 3.316-3.753 5.066.671 1.749 3.438 2.317 6.181 1.269ZM131.814 98.917c.827-2.83.085-5.536-1.656-6.043-1.741-.507-3.823 1.376-4.65 4.207-.826 2.83-.085 5.536 1.657 6.043 1.741.507 3.823-1.376 4.649-4.207ZM40.217 41.933c1.859-1.218 1.755-4.656-.23-7.678-1.986-3.023-5.103-4.486-6.961-3.268-1.859 1.218-1.756 4.655.23 7.678 1.986 3.023 5.102 4.486 6.961 3.268ZM31.65 8.813c1.161-2.648.781-5.372-.848-6.085-1.63-.712-3.893.856-5.054 3.504-1.16 2.648-.78 5.372.849 6.085 1.63.713 3.892-.856 5.053-3.504ZM22.162 42.506c2.26-2.603 2.74-5.884 1.073-7.328-1.668-1.445-4.853-.505-7.113 2.098-2.26 2.603-2.74 5.884-1.073 7.329 1.668 1.444 4.852.504 7.113-2.099ZM46.456 18.274c1.908-4.353 1.092-8.916-1.825-10.191-2.916-1.276-6.828 1.219-8.737 5.572-1.909 4.353-1.092 8.916 1.825 10.191 2.916 1.276 6.828-1.219 8.737-5.572ZM167.697 186.566c.658-2.261-.269-4.518-2.07-5.041-1.801-.522-3.795.887-4.453 3.148-.657 2.262.269 4.519 2.071 5.041 1.801.523 3.794-.887 4.452-3.148Z"/><path d="M171.868 199.635c1.901-4.335 1.087-8.88-1.819-10.151-2.906-1.271-6.803 1.214-8.704 5.549-1.901 4.335-1.086 8.88 1.819 10.151 2.906 1.271 6.803-1.214 8.704-5.549ZM17.924 24.252c1.595-.761 2.033-3.163.978-5.364-1.054-2.2-3.201-3.367-4.796-2.605-1.594.762-2.032 3.163-.978 5.364 1.055 2.2 3.202 3.367 4.796 2.605ZM121.039 105.725c2.4-.917 3.871-2.901 3.285-4.431-.586-1.53-3.007-2.026-5.408-1.109-2.4.917-3.871 2.901-3.285 4.431.586 1.53 3.007 2.026 5.408 1.109ZM107.83 34.66c1.687-2.257 1.858-4.98.382-6.078-1.475-1.1-4.039-.16-5.726 2.098-1.687 2.258-1.858 4.98-.382 6.08 1.475 1.099 4.039.159 5.726-2.1ZM46.446 186.038c3.339-.234 5.935-1.985 5.8-3.912-.135-1.927-2.95-3.3-6.289-3.067-3.338.234-5.935 1.985-5.8 3.912.135 1.927 2.951 3.3 6.29 3.067ZM38.357 213.024c2.704-3.107 3.496-6.841 1.769-8.34-1.727-1.5-5.32-.197-8.023 2.91-2.705 3.106-3.497 6.84-1.77 8.339 1.728 1.5 5.32.197 8.024-2.909ZM31.529 179.598c2.258-1.219 3.456-3.375 2.676-4.816-.78-1.441-3.242-1.621-5.5-.403-2.258 1.219-3.456 3.375-2.676 4.816.78 1.441 3.242 1.621 5.5.403ZM31.06 194.589c1.399-2.491 1.214-5.248-.412-6.159-1.626-.91-4.078.372-5.476 2.863-1.398 2.491-1.214 5.249.412 6.159 1.627.91 4.078-.372 5.476-2.863ZM70.652 123.228c1.734-.82 2.055-3.772.717-6.593-1.338-2.822-3.828-4.444-5.561-3.625-1.734.82-2.055 3.772-.717 6.593 1.338 2.822 3.828 4.445 5.561 3.625ZM36.4 169.565c.105-1.723-2.228-3.266-5.21-3.446-2.98-.18-5.483 1.071-5.587 2.794-.104 1.724 2.228 3.267 5.21 3.447 2.981.18 5.483-1.071 5.588-2.795ZM66.478 169.135c3.675-2.983 5.215-7.169 3.44-9.349-1.775-2.18-6.192-1.529-9.867 1.454-3.674 2.983-5.214 7.169-3.439 9.349 1.775 2.18 6.192 1.529 9.866-1.454ZM75.342 131.893c.853-2.552-1.628-5.678-5.541-6.983-3.913-1.304-7.777-.293-8.63 2.259-.853 2.551 1.628 5.677 5.541 6.982 3.913 1.305 7.777.294 8.63-2.258ZM61.369 33.385c1.67-.79 1.98-3.634.692-6.35-1.288-2.718-3.687-4.28-5.358-3.49-1.67.79-1.98 3.634-.692 6.35 1.288 2.718 3.687 4.28 5.358 3.49ZM65.848 42.139c.817-2.446-1.562-5.443-5.314-6.694-3.752-1.25-7.457-.282-8.274 2.164-.818 2.446 1.561 5.442 5.313 6.693 3.753 1.251 7.457.282 8.275-2.163ZM36.867 146.542c2.687-2.377 3.794-5.51 2.473-6.999-1.32-1.488-4.569-.768-7.255 1.609-2.687 2.377-3.794 5.51-2.473 6.999 1.32 1.488 4.569.768 7.255-1.609ZM51.615 136.031c3.125-1.478 4.002-6.169 1.959-10.478-2.043-4.309-6.233-6.604-9.358-5.126-3.125 1.478-4.002 6.169-1.96 10.478 2.044 4.309 6.234 6.604 9.359 5.126ZM52.788 177.555c2.85-1.089 4.597-3.446 3.9-5.264-.696-1.818-3.572-2.408-6.423-1.318-2.85 1.089-4.597 3.446-3.9 5.264.696 1.818 3.572 2.408 6.423 1.318ZM78.066 150.249c2.197-.311 3.584-3.341 3.098-6.768-.486-3.426-2.66-5.953-4.858-5.642-2.197.311-3.584 3.341-3.098 6.768.486 3.426 2.66 5.952 4.858 5.642ZM90.194 130.454c3.237-1.531 4.298-6.067 2.37-10.132-1.927-4.065-6.113-6.12-9.35-4.589-3.237 1.531-4.298 6.067-2.37 10.132 1.927 4.065 6.113 6.119 9.35 4.589ZM148.679 321.072c1.71-.809 2.026-3.717.708-6.497-1.318-2.78-3.772-4.378-5.481-3.569-1.709.808-2.026 3.716-.708 6.496 1.318 2.78 3.772 4.378 5.481 3.57ZM153.361 329.788c.846-2.529-1.614-5.629-5.495-6.923-3.88-1.293-7.711-.291-8.557 2.239-.845 2.53 1.615 5.629 5.495 6.923 3.88 1.293 7.712.291 8.557-2.239ZM183.403 316.461c3.194-1.511 4.243-5.986 2.342-9.995-1.901-4.01-6.032-6.035-9.227-4.524-3.195 1.511-4.244 5.986-2.343 9.995 1.901 4.009 6.033 6.035 9.228 4.524Z"/><path d="M45.129 154.54c2.866-3.837 3.157-8.461.652-10.327-2.506-1.867-6.86-.27-9.726 3.567-2.866 3.837-3.158 8.461-.652 10.327 2.505 1.867 6.86.27 9.726-3.567ZM47.327 106.979c.233-1.711-1.839-3.405-4.627-3.783-2.788-.378-5.236.703-5.469 2.414-.232 1.711 1.84 3.404 4.627 3.782 2.788.378 5.237-.702 5.47-2.413ZM20.371 203.826c3.056-2.704 4.314-6.271 2.809-7.967-1.505-1.696-5.202-.879-8.258 1.825-3.057 2.704-4.314 6.271-2.81 7.967 1.505 1.696 5.203.879 8.259-1.825ZM30.355 129.34c2.19-.31 3.571-3.336 3.086-6.759-.485-3.423-2.654-5.946-4.843-5.637-2.19.31-3.571 3.336-3.086 6.759.485 3.423 2.654 5.947 4.843 5.637ZM34.866 98.422c1.681-.795 2.233-3.15 1.232-5.262-1.001-2.11-3.176-3.177-4.857-2.382-1.681.795-2.232 3.15-1.232 5.261 1.001 2.111 3.176 3.178 4.857 2.383ZM104.659 173.291c3.418-1.617 4.541-6.403 2.507-10.691-2.033-4.288-6.452-6.454-9.87-4.837-3.418 1.616-4.541 6.403-2.508 10.691 2.033 4.288 6.453 6.453 9.871 4.837ZM153.376 247.232c4.332-.302 7.701-2.577 7.525-5.079-.175-2.503-3.828-4.287-8.159-3.985-4.331.303-7.7 2.577-7.525 5.08.175 2.503 3.828 4.287 8.159 3.984ZM144.033 242.221c1.263-2.249 1.096-4.739-.372-5.56-1.467-.822-3.681.335-4.943 2.585-1.262 2.249-1.096 4.738.372 5.56 1.468.821 3.681-.336 4.943-2.585ZM136.368 161.366c1.76-.497 2.939-1.774 2.634-2.854-.305-1.079-1.98-1.551-3.74-1.054-1.761.496-2.94 1.774-2.635 2.853.306 1.08 1.98 1.552 3.741 1.055ZM132.091 157.992c.018-1.657-2.292-3.025-5.159-3.056-2.867-.031-5.206 1.287-5.224 2.944-.018 1.657 2.292 3.026 5.159 3.057 2.867.031 5.206-1.287 5.224-2.945ZM186.352 64.806c1.82-.87 2.324-3.605 1.125-6.108-1.199-2.503-3.648-3.827-5.468-2.957-1.821.87-2.325 3.604-1.125 6.108 1.199 2.503 3.647 3.827 5.468 2.957Z"/><path d="M192.069 71.205c.388-2.76-2.393-5.43-6.212-5.964-3.818-.535-7.227 1.269-7.614 4.029-.388 2.76 2.394 5.43 6.212 5.964 3.818.535 7.227-1.27 7.614-4.029ZM149.38 226.043c.733-2.912-.04-5.616-1.728-6.04-1.688-.424-3.651 1.593-4.385 4.504-.733 2.912.041 5.616 1.729 6.04 1.688.424 3.65-1.593 4.384-4.504ZM165.632 215.311c1.476-2.223 1.361-4.893-.256-5.965-1.618-1.071-4.126-.138-5.602 2.085s-1.361 4.893.257 5.965c1.618 1.071 4.126.138 5.601-2.085ZM157.367 225.792c2.592-1.094 3.467-4.878 1.955-8.453-1.512-3.576-4.839-5.588-7.431-4.494-2.592 1.093-3.467 4.878-1.954 8.453 1.512 3.575 4.839 5.587 7.43 4.494ZM201.147 167.489c1.89-.903 2.415-3.738 1.173-6.332-1.243-2.593-3.783-3.964-5.673-3.06-1.89.903-2.415 3.738-1.173 6.331 1.243 2.594 3.783 3.964 5.673 3.061ZM202.787 155.216c1.569-2.101 1.727-4.633.354-5.657-1.374-1.023-3.759-.149-5.328 1.952-1.569 2.1-1.728 4.633-.354 5.656 1.373 1.023 3.759.149 5.328-1.951ZM17.379 68.311c1.833-4.18.86-8.643-2.173-9.97-3.034-1.327-6.978.987-8.811 5.167-1.833 4.18-.86 8.644 2.173 9.97 3.033 1.327 6.978-.986 8.81-5.166ZM7.443 83.74c2.21-1.056 2.819-4.384 1.358-7.433-1.461-3.05-4.437-4.665-6.648-3.609-2.21 1.057-2.818 4.385-1.358 7.434 1.461 3.049 4.438 4.664 6.648 3.608ZM121.825 122.41c1.578-2.113 1.739-4.659.36-5.687-1.38-1.028-3.778-.148-5.356 1.965-1.578 2.113-1.739 4.659-.36 5.687 1.38 1.028 3.778.148 5.356-1.965ZM72.168 200.84c2.17-1.036 2.77-4.292 1.343-7.271-1.428-2.98-4.343-4.555-6.512-3.518-2.169 1.036-2.77 4.291-1.342 7.271 1.427 2.979 4.343 4.555 6.511 3.518Z"/><path d="M78.773 207.823c.448-3.195-2.773-6.286-7.195-6.905-4.422-.619-8.37 1.468-8.819 4.663-.448 3.195 2.773 6.286 7.195 6.905 4.422.619 8.37-1.468 8.819-4.663ZM74.299 185.751c1.91-2.558 2.105-5.64.435-6.884-1.67-1.245-4.574-.18-6.484 2.378-1.91 2.558-2.106 5.64-.435 6.885 1.67 1.244 4.573.179 6.484-2.379ZM222.159 302.927c.008-1.668-2.191-3.032-4.912-3.045-2.72-.013-4.933 1.329-4.941 2.997-.008 1.669 2.191 3.033 4.912 3.046 2.72.013 4.933-1.329 4.941-2.998ZM241.64 315.911c1.453-.935 1.396-3.608-.128-5.969-1.524-2.362-3.938-3.518-5.391-2.583-1.453.935-1.396 3.608.128 5.97 1.524 2.362 3.938 3.518 5.391 2.582ZM254.42 272.755c2.852-.199 5.071-1.698 4.956-3.347-.116-1.65-2.522-2.825-5.375-2.626-2.852.199-5.071 1.698-4.956 3.347.116 1.65 2.522 2.825 5.375 2.626ZM262.674 254.099c4.292-1.351 7.145-4.43 6.372-6.879-.772-2.448-4.877-3.338-9.169-1.987-4.292 1.351-7.145 4.43-6.373 6.878.773 2.448 4.878 3.338 9.17 1.988ZM235.881 267.31c.961-4.106-.098-7.863-2.364-8.392-2.266-.529-4.882 2.371-5.842 6.477-.961 4.106.098 7.863 2.364 8.392 2.266.528 4.882-2.371 5.842-6.477ZM259.722 302.734c1.321-.85 1.438-3.015.263-4.836-1.174-1.82-3.197-2.607-4.518-1.758-1.32.85-1.438 3.015-.263 4.835 1.175 1.821 3.198 2.608 4.518 1.759ZM251.118 366.655c1.392-.896 1.517-3.176.279-5.094-1.237-1.918-3.369-2.747-4.76-1.851-1.392.896-1.517 3.176-.279 5.094 1.237 1.918 3.369 2.747 4.76 1.851ZM247.226 256.931c2.427-1.31 3.715-3.628 2.877-5.178-.839-1.549-3.486-1.743-5.914-.433-2.427 1.31-3.716 3.628-2.877 5.178.839 1.549 3.486 1.743 5.914.433ZM139.679 289.2c4.063-1.278 6.764-4.195 6.032-6.515-.731-2.319-4.619-3.163-8.683-1.884-4.063 1.278-6.764 4.195-6.032 6.515.732 2.319 4.619 3.163 8.683 1.884ZM123.53 292.711c2.794-1.508 4.277-4.177 3.311-5.96-.965-1.783-4.012-2.007-6.806-.498-2.795 1.508-4.277 4.176-3.312 5.959.965 1.784 4.013 2.007 6.807.499ZM222.538 288.914c2.893-.802 4.219-5.117 2.962-9.636-1.256-4.519-4.62-7.533-7.513-6.73-2.893.802-4.22 5.116-2.963 9.636 1.257 4.519 4.621 7.532 7.514 6.73ZM266.077 264.822c1.336-2.38 1.158-5.015-.398-5.886-1.555-.87-3.899.354-5.235 2.734-1.336 2.38-1.158 5.016.398 5.886 1.555.871 3.899-.353 5.235-2.734ZM256.282 342.081c1.657-1.067 1.913-3.618.571-5.698-1.342-2.08-3.774-2.901-5.432-1.834-1.657 1.067-1.913 3.618-.571 5.698 1.342 2.08 3.774 2.901 5.432 1.834ZM261.739 233.151c.102-1.688-2.185-3.201-5.109-3.377-2.924-.177-5.377 1.049-5.479 2.738-.102 1.689 2.185 3.201 5.109 3.378 2.924.176 5.377-1.05 5.479-2.739ZM173.62 378.39c3.767-.781 6.407-3.404 5.897-5.856-.511-2.453-3.978-3.808-7.745-3.026-3.768.782-6.408 3.404-5.897 5.857.51 2.453 3.978 3.807 7.745 3.025Z"/><path d="M165.013 384.882c3.736-1.444 6.016-4.547 5.092-6.931-.924-2.383-4.702-3.145-8.438-1.7-3.736 1.444-6.016 4.547-5.092 6.931.924 2.383 4.701 3.145 8.438 1.7ZM219.634 355.643c3.623-.752 6.163-3.274 5.672-5.632-.491-2.359-3.826-3.661-7.45-2.909-3.623.752-6.163 3.274-5.672 5.632.491 2.359 3.826 3.661 7.45 2.909ZM210.605 364.019c3.539-1.353 5.707-4.279 4.843-6.536-.865-2.257-4.436-2.99-7.975-1.637-3.54 1.352-5.708 4.278-4.843 6.535.865 2.257 4.435 2.99 7.975 1.638ZM187.987 398.099c2.972-.207 5.284-1.769 5.164-3.488-.121-1.718-2.628-2.943-5.6-2.736-2.972.208-5.284 1.769-5.163 3.488.12 1.719 2.627 2.944 5.599 2.736ZM176.289 402.686c3.01-.211 5.352-1.793 5.23-3.535-.122-1.741-2.661-2.983-5.672-2.773-3.01.211-5.352 1.793-5.23 3.535.122 1.741 2.661 2.983 5.672 2.773ZM203.058 404.981c2.166-1.169 3.317-3.235 2.57-4.615-.747-1.38-3.108-1.551-5.274-.382s-3.317 3.236-2.57 4.616c.747 1.38 3.108 1.551 5.274.381ZM255.871 352.27c1.461-.691 1.731-3.18.603-5.559-1.128-2.379-3.227-3.748-4.689-3.057-1.461.692-1.731 3.181-.603 5.56 1.128 2.379 3.227 3.747 4.689 3.056ZM213.955 381.901c.104-1.716-2.216-3.252-5.183-3.431-2.966-.179-5.455 1.067-5.559 2.782-.103 1.716 2.217 3.252 5.183 3.431 2.966.179 5.455-1.066 5.559-2.782ZM262.571 391.235c2.959-2.402 4.199-5.772 2.77-7.528-1.429-1.755-4.986-1.231-7.945 1.171-2.958 2.402-4.198 5.772-2.769 7.528 1.429 1.755 4.986 1.231 7.944-1.171ZM231.355 372.972c5.035-4.455 7.109-10.33 4.631-13.123-2.477-2.792-8.567-1.445-13.602 3.01s-7.108 10.33-4.631 13.122c2.478 2.793 8.568 1.445 13.602-3.009ZM237.912 346.136c1.57-.743 2.01-3.098.985-5.261-1.026-2.163-3.13-3.315-4.699-2.573-1.57.743-2.011 3.098-.985 5.261 1.026 2.163 3.129 3.315 4.699 2.573ZM266.313 361.752c2.532-1.198 3.362-4.747 1.854-7.927-1.508-3.18-4.783-4.787-7.316-3.59-2.532 1.198-3.362 4.747-1.854 7.927 1.508 3.18 4.783 4.787 7.316 3.59ZM141.915 206.826c2.155-.305 3.515-3.28 3.038-6.646-.477-3.366-2.611-5.847-4.766-5.542-2.155.304-3.516 3.28-3.038 6.646.477 3.365 2.611 5.847 4.766 5.542ZM140.725 192.368c2.581-1.22 3.428-4.836 1.892-8.076-1.536-3.239-4.874-4.876-7.455-3.655-2.581 1.221-3.428 4.836-1.892 8.076 1.536 3.239 4.874 4.876 7.455 3.655ZM232.999 387.719c1.645-2.203 1.813-4.857.375-5.929-1.439-1.071-3.939-.154-5.584 2.048-1.645 2.203-1.813 4.857-.374 5.929 1.438 1.071 3.938.154 5.583-2.048ZM234.767 334.144c.216-1.64-1.781-3.255-4.459-3.606-2.678-.352-5.024.694-5.24 2.334-.216 1.641 1.781 3.256 4.459 3.607 2.678.351 5.024-.694 5.24-2.335ZM210.076 322.621c1.618-.765 1.918-3.521.669-6.154-1.248-2.633-3.573-4.148-5.191-3.382-1.618.765-1.918 3.52-.669 6.154 1.248 2.633 3.572 4.147 5.191 3.382ZM201.414 375.885c1.671-1.356 2.372-3.259 1.566-4.249-.806-.989-2.813-.692-4.484.664-1.671 1.357-2.373 3.259-1.567 4.249.806.99 2.814.693 4.485-.664ZM191.878 383.867c3.471-1.327 5.597-4.197 4.749-6.41-.849-2.214-4.35-2.933-7.821-1.607-3.471 1.327-5.597 4.196-4.749 6.41.848 2.214 4.35 2.933 7.821 1.607Z"/><path d="M219.515 347.49c1.953-.276 3.185-2.972 2.753-6.021-.432-3.049-2.366-5.296-4.318-5.02-1.953.276-3.185 2.971-2.753 6.02.432 3.049 2.366 5.297 4.318 5.021ZM222.559 313.716c1.681-.795 2.232-3.15 1.231-5.261-1.001-2.111-3.175-3.178-4.856-2.383-1.681.795-2.233 3.151-1.232 5.262 1.001 2.111 3.176 3.178 4.857 2.382Z"/></g><defs><clipPath id="a"><path fill="#fff" d="M0 0h260v416H0z"/></clipPath></defs></svg>
