<svg width="68" height="44" viewBox="0 0 68 44" fill="none" xmlns="http://www.w3.org/2000/svg">
  <g clip-path="url(#clip0_104_6)">
    <path d="M65.9478 6.84455C65.5657 5.52467 64.8203 4.32139 63.7859 3.35451C62.7516 2.38763 61.4642 1.6909 60.0522 1.33369C54.8826 0.0158691 34.0769 0.0158691 34.0769 0.0158691C34.0769 0.0158691 13.2701 0.0557588 8.10058 1.37358C6.68849 1.73081 5.40116 2.42758 4.36678 3.3945C3.3324 4.36143 2.58707 5.56476 2.20501 6.88468C0.641341 15.4702 0.0347655 28.5526 2.24795 36.7947C2.63005 38.1145 3.3754 39.3178 4.40977 40.2847C5.44415 41.2516 6.73146 41.9483 8.14352 42.3055C13.3131 43.6233 34.1193 43.6233 34.1193 43.6233C34.1193 43.6233 54.9253 43.6233 60.0946 42.3055C61.5067 41.9483 62.7941 41.2516 63.8285 40.2847C64.8629 39.3179 65.6083 38.1146 65.9904 36.7947C67.6397 28.197 68.1479 15.1229 65.9478 6.84479V6.84455Z" fill="currentColor"/>
    <path d="M27.4584 31.1639L44.7186 21.8195L27.4586 12.4751L27.4584 31.1639Z" fill="white"/>
  </g>
  <defs>
    <clipPath id="clip0_104_6">
      <rect width="66.6296" height="43.7814" fill="white" transform="translate(0.800293 0.0158691)"/>
    </clipPath>
  </defs>
</svg>

