<svg width="16" height="16" viewBox="0 0 16 16" fill="none" xmlns="http://www.w3.org/2000/svg">
<path fill-rule="evenodd" clip-rule="evenodd" d="M8.50251 0.5C8.50251 0.223858 8.27866 0 8.00251 0C7.72637 0 7.50251 0.223858 7.50251 0.5V7.50051H0.5C0.223858 7.50051 0 7.72437 0 8.00051C0 8.27666 0.223858 8.50051 0.5 8.50051H7.50251V15.5C7.50251 15.7761 7.72637 16 8.00251 16C8.27866 16 8.50251 15.7761 8.50251 15.5V8.50051H15.5C15.7761 8.50051 16 8.27666 16 8.00051C16 7.72437 15.7761 7.50051 15.5 7.50051H8.50251V0.5Z" fill="currentColor"/>
</svg>
