<?xml version="1.0" standalone="no"?>
<!DOCTYPE svg PUBLIC "-//W3C//DTD SVG 20010904//EN"
 "http://www.w3.org/TR/2001/REC-SVG-20010904/DTD/svg10.dtd">
<svg version="1.0" xmlns="http://www.w3.org/2000/svg"
 width="700.000000pt" height="700.000000pt" viewBox="0 0 700.000000 700.000000"
 preserveAspectRatio="xMidYMid meet">
<metadata>
Created by potrace 1.14, written by Peter Selinger 2001-2017
</metadata>
<g transform="translate(0.000000,700.000000) scale(0.100000,-0.100000)"
fill="#000000" stroke="none">
<path d="M2230 5846 c-26 -6 -64 -23 -85 -36 -458 -277 -791 -626 -1034 -1082
-128 -241 -140 -327 -56 -426 61 -72 166 -95 256 -55 63 29 79 50 162 218 64
128 183 322 239 390 9 11 33 40 53 65 82 100 230 243 361 348 45 36 252 172
262 172 18 0 90 88 102 125 18 54 8 146 -21 187 -57 82 -150 118 -239 94z"/>
<path d="M4664 5848 c-52 -11 -121 -69 -145 -122 -50 -109 -5 -227 111 -294
375 -217 693 -557 889 -950 34 -67 61 -125 61 -129 0 -5 14 -25 31 -46 104
-126 310 -97 373 54 27 66 15 141 -42 260 -235 491 -584 879 -1048 1166 -99
62 -157 77 -230 61z"/>
<path d="M3349 5427 c-2 -3 -36 -7 -74 -11 -204 -19 -420 -83 -641 -191 -255
-125 -494 -318 -664 -535 -28 -36 -55 -71 -61 -78 -49 -60 -173 -289 -224
-413 -22 -54 -67 -194 -80 -249 -24 -101 -26 -112 -44 -240 -10 -69 -7 -437 4
-505 71 -432 255 -803 544 -1094 53 -53 117 -114 143 -135 l47 -38 -19 -36
c-11 -21 -38 -66 -60 -102 -22 -36 -44 -72 -49 -80 -169 -280 -180 -303 -176
-370 10 -145 171 -246 298 -186 64 31 69 37 262 353 l118 192 36 -15 c384
-166 742 -205 1181 -129 91 16 284 78 401 129 l37 15 143 -236 c145 -238 181
-286 228 -305 119 -48 236 -6 292 104 18 34 27 110 18 148 -5 20 -147 259
-271 458 -10 15 -22 34 -27 43 -8 13 2 27 52 70 269 233 460 510 577 839 39
107 83 288 97 395 10 79 10 423 0 500 -8 63 -9 68 -21 125 -4 19 -8 42 -10 50
-11 57 -51 190 -83 275 -51 137 -175 365 -247 456 -12 14 -32 40 -46 59 -102
135 -284 303 -451 415 -96 65 -279 158 -393 200 -78 29 -311 97 -324 94 -4 -1
-96 13 -122 18 -32 6 -385 15 -391 10z m256 -441 c61 -2 117 -7 125 -10 8 -3
29 -7 45 -10 284 -43 612 -221 817 -441 87 -94 108 -120 164 -203 171 -255
258 -543 256 -852 0 -149 -10 -228 -47 -370 -139 -541 -563 -959 -1110 -1094
-205 -50 -449 -54 -658 -11 -461 95 -855 401 -1057 820 -108 225 -159 453
-154 690 3 91 9 171 19 215 3 14 8 41 11 60 10 62 64 229 100 312 106 241 257
427 499 616 55 43 287 171 319 176 6 1 16 4 21 8 18 11 212 67 257 73 23 4 45
8 49 11 4 2 51 7 105 10 55 4 101 8 102 10 2 1 9 1 15 -1 7 -2 62 -6 122 -9z"/>
<path d="M3463 4379 c-81 -15 -128 -52 -162 -129 -18 -42 -19 -70 -20 -425 0
-263 4 -392 12 -420 13 -46 74 -111 123 -131 27 -11 110 -14 424 -14 426 0
433 1 493 58 110 104 87 284 -46 354 -40 21 -54 22 -300 24 -141 0 -259 3
-262 5 -2 3 -5 119 -6 258 l-1 252 -27 52 c-45 86 -135 132 -228 116z"/>
</g>
</svg>
