<svg width="245" height="31" fill="none" xmlns="http://www.w3.org/2000/svg"><path d="M122.005 26.392h-8.253V4.33h8.253v22.063Zm-7.447-.806h6.641V5.136h-6.641v20.45Zm18.93.806h-8.087V4.33h16.896c2.42-.196 4.83.484 6.792 1.915a7.427 7.427 0 0 1 2.384 6.153 7.84 7.84 0 0 1-1.755 5.44c-1.479 1.695-3.938 2.569-7.31 2.6-.85.022-7.215 0-8.915 0l-.005 5.955Zm-7.286-.806h6.48v-5.963h.405c.082 0 8.346.025 9.301 0 3.142-.028 5.4-.806 6.72-2.326a7.08 7.08 0 0 0 1.548-4.902 6.688 6.688 0 0 0-2.096-5.533 9.392 9.392 0 0 0-6.275-1.728h-16.078l-.005 20.452Zm14.383-10.106h-7.958V9.474h8.011a3.404 3.404 0 0 1 3.063 1.172c.336.56.494 1.207.454 1.859.03.604-.1 1.206-.379 1.744a3.487 3.487 0 0 1-3.191 1.225v.006Zm-7.152-.806h7.152c1.322 0 2.14-.275 2.503-.843.2-.412.29-.869.263-1.326.035-.48-.069-.96-.3-1.383l-.01-.015c-.383-.564-1.146-.827-2.403-.827h-7.205v4.394Zm32.748 12.044c-7.237 0-11.557-1.797-13.203-5.493a9.6 9.6 0 0 1-.545-2.215l-.07-.464h8.61l.056.338c.067.344.213.667.426.945.34.41 1.475 1.1 5.24 1.1 4.526 0 4.526-.794 4.526-1.221 0-.72-.524-.967-4.215-1.36l-.701-.066c-1.389-.131-3.146-.297-3.949-.366-6.77-.613-9.792-2.716-9.792-6.819 0-4.308 5.143-7.092 13.104-7.092 6.494 0 10.679 1.712 12.434 5.092.416.786.696 1.638.827 2.518l.056.453h-8.62l-.035-.364a1.377 1.377 0 0 0-.348-.764c-.323-.432-1.341-1.146-4.504-1.146-3.883 0-4.418.496-4.418 1.031 0 .714 1.227.967 5.158 1.388a183 183 0 0 1 5.177.514c5.675.616 8.208 2.668 8.208 6.655.001 3.345-2.328 7.336-13.422 7.336Zm-12.877-7.366c.081.531.22 1.052.414 1.553 1.499 3.368 5.577 5.007 12.463 5.007 5.757 0 12.622-1.128 12.622-6.53 0-3.534-2.24-5.285-7.493-5.854-.903-.11-3.522-.379-5.158-.514-4.191-.455-5.895-.696-5.895-2.189 0-1.544 1.836-1.837 5.224-1.837 2.678 0 4.407.483 5.141 1.458a2.4 2.4 0 0 1 .444.816h6.986a7.246 7.246 0 0 0-.661-1.79c-1.612-3.094-5.549-4.66-11.719-4.66-7.471 0-12.299 2.467-12.299 6.285 0 3.643 2.71 5.442 9.057 6.016.806.07 2.561.235 3.954.367l.706.067c3.428.36 4.94.586 4.94 2.16 0 1.697-1.955 2.029-5.332 2.029-3.123 0-5.096-.47-5.859-1.393a2.987 2.987 0 0 1-.522-.991h-7.013Zm41.611 7.338c-8.414 0-13.056-3.402-13.056-9.582V4.329h8.143v12.779c0 2.12 1.897 3.335 5.203 3.335 3.16 0 5.121-1.269 5.121-3.308V4.33h8.059v13.456c.008 5.66-4.906 8.905-13.475 8.905h.005Zm-12.25-21.555v11.973c0 7.637 7.669 8.776 12.25 8.776 4.736 0 12.677-1.052 12.677-8.099V5.135h-6.447v12c0 2.499-2.328 4.114-5.927 4.114-3.762 0-6.009-1.547-6.009-4.141V5.135h-6.544Zm59.872 21.257h-7.685v-9.96l-4.359 9.96h-6.703l-4.314-9.942v9.942h-7.712V4.33h10.145l5.27 12.165 5.526-12.165h9.842l-.01 22.063Zm-6.879-.806h6.073V5.136h-8.514l-6.063 13.344-5.78-13.345h-8.811v20.451h6.101V12.572l5.642 13.02h5.641l5.701-13 .01 12.994ZM9.758 4.732h-7.34V25.99H22.7V20.33H9.758V4.732Zm27.76-.483c-9.37 0-14.298 4.44-14.298 10.96 0 7.366 5.173 11.103 14.297 11.103 10.045 0 14.27-4.333 14.27-11.103 0-6.874-4.766-10.963-14.27-10.963v.003Zm-.028 5.524a15.2 15.2 0 0 1 1.908.11l-8.206 8.207a6.513 6.513 0 0 1-.554-2.792c0-3.335 1.68-5.529 6.852-5.529v.004Zm.027 11.102a15.232 15.232 0 0 1-1.839-.103l8.22-8.22c.374.863.553 1.799.524 2.74 0 3.244-1.547 5.58-6.905 5.58v.003Zm28.813-2.901h7.555a3.45 3.45 0 0 1-.677 1.434 7.826 7.826 0 0 1-5.578 1.733 7.11 7.11 0 0 1-5.605-1.868 6.016 6.016 0 0 1-1.03-3.819 5.878 5.878 0 0 1 1.11-3.98c1.057-1.192 2.844-1.706 5.471-1.706a7.457 7.457 0 0 1 4.74 1.218c.44.35.77.82.947 1.354h7.007a7.22 7.22 0 0 0-.624-2.545c-1.678-3.412-5.579-5.443-12.211-5.443-5.77 0-9.64 1.76-11.78 4.415a10.588 10.588 0 0 0-2.058 6.634 11.173 11.173 0 0 0 2.011 6.826c2.114 2.74 5.877 4.088 10.4 4.088 3.007.21 5.993-.633 8.448-2.382l.19 2.056h5.82V13.398H66.331v4.576Zm30.656-13.73c-9.368 0-14.297 4.44-14.297 10.96 0 7.367 5.17 11.103 14.297 11.103 10.047 0 14.271-4.333 14.271-11.102 0-6.87-4.766-10.96-14.27-10.96v-.001Zm-.026 5.524c.621-.002 1.242.033 1.859.106l-8.174 8.179a6.538 6.538 0 0 1-.537-2.755c-.006-3.335 1.68-5.529 6.852-5.529v-.001Zm.026 11.102c-.63.003-1.261-.034-1.887-.11l8.247-8.249c.388.875.574 1.827.544 2.784.003 3.241-1.538 5.577-6.904 5.577v-.002Z" fill="#fff"/></svg>
