<svg width="437" height="323" fill="none" xmlns="http://www.w3.org/2000/svg"><path d="M60.39 134.374c.772 1.813 3.426 2.418 5.93 1.353 2.503-1.065 3.907-3.398 3.135-5.211-.771-1.812-3.426-2.418-5.929-1.352-2.503 1.065-3.907 3.398-3.136 5.21ZM114.612 60.202c.381 1.707 2.233 2.747 4.137 2.322 1.903-.425 3.137-2.154 2.756-3.86-.381-1.708-2.233-2.747-4.136-2.322-1.904.425-3.138 2.153-2.757 3.86ZM2.154 139.872c2.038.639 4.624-1.821 5.777-5.495 1.152-3.674.434-7.171-1.604-7.81-2.038-.639-4.625 1.821-5.777 5.495-1.153 3.674-.435 7.17 1.604 7.81ZM422.177 91.108c2.47 1.213 5.076.966 5.822-.552.746-1.518-.652-3.732-3.121-4.945-2.47-1.213-5.076-.966-5.822.551-.746 1.518.652 3.732 3.121 4.946ZM401.83 122.831c-.646 3.678.486 6.951 2.529 7.31s4.223-2.332 4.869-6.01c.646-3.678-.486-6.95-2.529-7.309s-4.223 2.331-4.869 6.009ZM398.729 139.641c2.762 2.616 6.358 3.304 8.032 1.537 1.674-1.767.792-5.321-1.97-7.936-2.762-2.616-6.358-3.304-8.032-1.537-1.674 1.767-.792 5.32 1.97 7.936ZM431.005 64.99c2.14 1.052 4.552.524 5.388-1.178.836-1.702-.22-3.934-2.36-4.985-2.14-1.051-4.552-.523-5.388 1.178-.836 1.702.22 3.934 2.36 4.985ZM422.222 98.712c.704 1.656 3.129 2.209 5.415 1.236 2.286-.972 3.568-3.103 2.863-4.76-.705-1.655-3.129-2.208-5.415-1.236-2.286.974-3.568 3.104-2.863 4.76ZM339.29 82.156c1.366 1.069 3.827.202 5.499-1.935 1.671-2.137 1.918-4.735.553-5.803-1.366-1.068-3.828-.202-5.499 1.935-1.671 2.137-1.919 4.736-.553 5.803ZM46.566 105.071c3.261 2.168 6.986 2.301 8.318.296 1.333-2.004-.23-5.387-3.492-7.555s-6.986-2.3-8.318-.296c-1.333 2.004.23 5.387 3.492 7.555ZM202.495 262.514c2.027.636 4.598-1.806 5.742-5.454 1.144-3.648.429-7.121-1.598-7.757-2.028-.636-4.599 1.806-5.743 5.455-1.144 3.648-.429 7.121 1.599 7.756ZM55.394 83.107c2.072 1.377 4.56 1.277 5.56-.225.998-1.502.127-3.836-1.945-5.214-2.072-1.377-4.562-1.277-5.56.225-.998 1.502-.128 3.836 1.945 5.214ZM55.127 131.027c1.962 1.305 4.396 1.095 5.435-.468 1.039-1.563.29-3.887-1.672-5.192-1.963-1.305-4.396-1.095-5.435.468-1.04 1.563-.29 3.887 1.672 5.192ZM190.415 58.01c.861 1.446 3.471 1.48 5.828.078 2.358-1.404 3.571-3.714 2.71-5.16-.861-1.447-3.47-1.482-5.828-.079-2.358 1.404-3.571 3.714-2.71 5.16ZM131.113 70.074c2.713 1.333 5.576 1.062 6.395-.605s-.716-4.1-3.429-5.432c-2.712-1.333-5.575-1.062-6.394.605-.819 1.668.716 4.1 3.428 5.432ZM115.502 149.917c1.369 1.952 5.211 1.619 8.583-.745 3.371-2.364 4.995-5.863 3.626-7.814-1.368-1.952-5.211-1.618-8.582.745-3.371 2.364-4.995 5.863-3.627 7.814ZM218.882 177.486c2.064 2.944 7.859 2.439 12.945-1.126 5.086-3.566 7.535-8.843 5.472-11.786-2.064-2.944-7.86-2.44-12.946 1.126-5.085 3.565-7.535 8.842-5.471 11.786ZM158.588 139.339c1.285.283 2.713-1.244 3.189-3.41.476-2.166-.18-4.15-1.465-4.433-1.285-.282-2.713 1.245-3.189 3.41-.476 2.166.18 4.151 1.465 4.433ZM117.391 87.432c2.22 1.09 4.659.67 5.449-.938s-.368-3.795-2.588-4.886c-2.219-1.09-4.659-.67-5.449.938s.369 3.795 2.588 4.886ZM256.857 179.193c2.108 1.036 4.424.639 5.173-.885.749-1.525-.352-3.601-2.461-4.637-2.108-1.036-4.424-.639-5.173.886-.75 1.524.352 3.6 2.461 4.636ZM157.194 130.116c2.985 1.763 7.642-.594 10.401-5.266 2.759-4.672 2.575-9.888-.41-11.651-2.986-1.764-7.643.594-10.402 5.266-2.759 4.671-2.575 9.888.411 11.651ZM155.664 86.84c2.363 2.238 5.439 2.827 6.871 1.315 1.432-1.511.677-4.55-1.686-6.789-2.363-2.238-5.439-2.827-6.871-1.315-1.431 1.511-.676 4.551 1.686 6.789ZM133.256 85.754c.81 1.9 3.599 2.534 6.23 1.414 2.632-1.12 4.109-3.569 3.299-5.47-.809-1.902-3.598-2.535-6.229-1.415-2.632 1.12-4.109 3.569-3.3 5.47ZM101.22 84.57c1.358 2.281 5.47 2.338 9.184.127 3.715-2.211 5.625-5.853 4.267-8.134-1.358-2.281-5.47-2.338-9.184-.127-3.715 2.211-5.625 5.853-4.267 8.134ZM41.937 153.152c1.628 2.323 6.2 1.925 10.212-.887 4.011-2.813 5.943-6.975 4.315-9.298-1.629-2.323-6.2-1.926-10.212.887-4.012 2.812-5.944 6.975-4.315 9.298ZM103.512 65.022c.879 2.065 3.895 2.76 6.736 1.55 2.842-1.21 4.433-3.864 3.554-5.93-.879-2.065-3.895-2.759-6.737-1.55-2.841 1.21-4.432 3.865-3.553 5.93ZM63.464 115.478c-.665 3.781.5 7.145 2.6 7.514 2.1.369 4.34-2.397 5.005-6.178.664-3.781-.5-7.145-2.6-7.514-2.1-.369-4.341 2.397-5.005 6.178ZM69.322 96.857c2.052 1.009 4.309.621 5.039-.865.73-1.487-.342-3.51-2.394-4.518-2.053-1.009-4.31-.621-5.04.865-.73 1.487.342 3.51 2.395 4.518Z" fill="#2A5EBC"/><path d="M101.798 93.469c2.663 2.527 6.132 3.196 7.747 1.494 1.616-1.702.765-5.131-1.898-7.659-2.664-2.527-6.133-3.196-7.748-1.494-1.615 1.702-.765 5.131 1.899 7.659ZM78.4 99.043c.777 1.849 3.48 2.477 6.038 1.404 2.559-1.074 4.003-3.444 3.227-5.293-.776-1.85-3.48-2.478-6.038-1.404-2.558 1.073-4.003 3.443-3.227 5.293ZM71.776 119.645c.09 2.916 1.707 5.233 3.61 5.174 1.903-.059 3.372-2.471 3.282-5.387-.09-2.917-1.707-5.233-3.61-5.174-1.903.059-3.372 2.471-3.282 5.387ZM149.274 145.562c.846 1.619 3.801 1.746 6.599.284 2.799-1.462 4.382-3.96 3.537-5.579-.846-1.619-3.801-1.746-6.6-.284-2.798 1.463-4.382 3.96-3.536 5.579ZM122.637 164.923c1.256.983 3.522.182 5.062-1.787 1.54-1.969 1.771-4.362.515-5.344-1.256-.982-3.523-.182-5.063 1.787-1.54 1.97-1.77 4.362-.514 5.344ZM102.873 169.784c-.269 2.703.943 5.037 2.707 5.213 1.763.175 3.411-1.874 3.68-4.577.269-2.703-.942-5.037-2.706-5.213-1.764-.175-3.411 1.874-3.681 4.577ZM128.944 54.101c.669 1.553 3.26 1.93 5.787.841 2.527-1.088 4.033-3.23 3.364-4.783-.669-1.553-3.26-1.93-5.787-.841s-4.033 3.23-3.364 4.783ZM150.398 49.022c4.879 3.244 10.45 3.444 12.442.447 1.993-2.998-.347-8.057-5.227-11.3-4.879-3.244-10.449-3.444-12.442-.447-1.992 2.998.348 8.057 5.227 11.3Z" fill="#2A5EBC"/><path d="M140.33 54.02c1.888 1.255 4.229 1.056 5.227-.446.998-1.502.277-3.737-1.612-4.992-1.888-1.256-4.229-1.056-5.227.446-.998 1.501-.277 3.736 1.612 4.992ZM278.83 188.14c2.018 1.341 4.518 1.127 5.585-.477 1.067-1.605.297-3.994-1.721-5.335-2.017-1.341-4.518-1.127-5.585.478-1.066 1.605-.296 3.993 1.721 5.334ZM185.735 163.765c1.271 2.134 5.118 2.188 8.593.12 3.475-2.069 5.261-5.476 3.991-7.611-1.271-2.135-5.118-2.189-8.593-.12-3.475 2.068-5.262 5.476-3.991 7.611ZM237.61 190.288c2.4 1.179 4.932.941 5.656-.531.723-1.473-.636-3.623-3.036-4.802-2.4-1.179-4.932-.941-5.655.532-.724 1.472.635 3.622 3.035 4.801ZM225.064 253.072c1.069 1.524 4.072 1.262 6.708-.587 2.637-1.848 3.908-4.582 2.839-6.106s-4.072-1.261-6.708.587c-2.637 1.848-3.908 4.582-2.839 6.106ZM272.822 225.415c1.387.305 2.928-1.341 3.441-3.677.514-2.336-.195-4.476-1.582-4.781-1.387-.305-2.927 1.341-3.441 3.677-.513 2.336.195 4.477 1.582 4.781ZM220.016 225.966c-1.084 6.17.815 11.661 4.241 12.263 3.427.602 7.083-3.912 8.167-10.083 1.085-6.171-.814-11.661-4.241-12.263-3.426-.602-7.083 3.912-8.167 10.083ZM230.246 199.381c2.136 1.049 4.483.647 5.242-.899.76-1.545-.356-3.649-2.492-4.699-2.137-1.049-4.484-.647-5.243.899-.759 1.545.357 3.649 2.493 4.699ZM264.747 243.122c1.483.876 3.797-.297 5.169-2.62 1.371-2.322 1.281-4.915-.202-5.79-1.482-.876-3.796.297-5.168 2.619-1.372 2.323-1.282 4.915.201 5.791ZM154.283 168.765c4.432 2.178 9.429 1.085 11.161-2.44 1.732-3.526-.457-8.149-4.888-10.326-4.432-2.178-9.429-1.085-11.161 2.44-1.732 3.526.456 8.149 4.888 10.326ZM244.328 237.648c.088 2.851 1.668 5.115 3.528 5.057 1.861-.057 3.298-2.415 3.209-5.266-.088-2.851-1.668-5.115-3.528-5.057-1.861.057-3.298 2.415-3.209 5.266ZM190.922 260.672c.908 1.526 3.658 1.565 6.142.086 2.484-1.479 3.762-3.915 2.853-5.441-.909-1.526-3.659-1.565-6.143-.086-2.484 1.479-3.761 3.915-2.852 5.441ZM183.104 201.067c2.48 1.218 5.098.97 5.847-.555.749-1.525-.654-3.748-3.134-4.967-2.48-1.218-5.097-.97-5.847.555-.749 1.525.654 3.748 3.134 4.967ZM369.345 200.454c2.445 1.202 5.025.959 5.762-.541.737-1.501-.647-3.691-3.093-4.892-2.445-1.202-5.025-.959-5.762.541-.737 1.501.648 3.691 3.093 4.892ZM171.385 258.859c1.477 2.107 5.626 1.746 9.267-.806 3.641-2.553 5.394-6.33 3.917-8.437-1.477-2.108-5.626-1.747-9.267.806-3.641 2.553-5.395 6.33-3.917 8.437ZM120.013 177.186c5.591 1.754 10.912.658 11.886-2.447.974-3.106-2.768-7.044-8.358-8.798-5.59-1.754-10.912-.658-11.886 2.448-.974 3.105 2.768 7.044 8.358 8.797ZM82.06 178.486c2.035 1 4.273.614 4.998-.862.725-1.476-.337-3.483-2.372-4.483-2.035-1-4.273-.614-4.998.862-.726 1.476.336 3.483 2.372 4.483ZM218.767 259.884c1.443.852 3.694-.289 5.028-2.548 1.335-2.259 1.247-4.781-.196-5.633-1.443-.852-3.694.288-5.028 2.548-1.335 2.259-1.247 4.781.196 5.633ZM122.858 212.497c1.12 1.597 4.263 1.325 7.019-.608 2.757-1.932 4.084-4.794 2.964-6.391-1.119-1.597-4.262-1.325-7.018.608-2.757 1.933-4.084 4.794-2.965 6.391Z" fill="#2A5EBC"/><path d="M116.731 219.261c1.48.874 3.788-.295 5.156-2.611 1.367-2.316 1.277-4.901-.203-5.775-1.479-.874-3.787.295-5.155 2.611-1.368 2.316-1.277 4.902.202 5.775ZM24.389 204.283c1.064 1.518 4.056 1.255 6.683-.586 2.627-1.842 3.893-4.565 2.83-6.083-1.065-1.518-4.057-1.255-6.684.586-2.627 1.842-3.893 4.565-2.83 6.083ZM18.079 211.137c1.453.858 3.718-.288 5.06-2.561 1.343-2.272 1.253-4.81-.2-5.668-1.453-.858-3.718.289-5.06 2.561-1.343 2.273-1.253 4.81.2 5.668ZM199.854 175.313c1.075 1.534 4.097 1.27 6.749-.59 2.652-1.859 3.93-4.61 2.855-6.144-1.075-1.533-4.097-1.269-6.749.59-2.652 1.86-3.93 4.61-2.855 6.144ZM193.597 182.111c1.446.854 3.702-.288 5.038-2.55 1.336-2.263 1.247-4.789-.199-5.643-1.446-.854-3.702.287-5.038 2.55-1.336 2.262-1.247 4.789.199 5.643ZM362.403 109.369c1.033 1.474 3.933 1.222 6.478-.562 2.544-1.784 3.77-4.425 2.737-5.898-1.033-1.473-3.934-1.222-6.478.562-2.544 1.784-3.77 4.425-2.737 5.898ZM355.883 116.391c1.476.872 3.779-.294 5.142-2.603 1.364-2.309 1.273-4.888-.203-5.759-1.476-.872-3.778.293-5.142 2.602-1.364 2.309-1.273 4.888.203 5.76ZM210.411 216.337c2.379 2.254 5.476 2.849 6.915 1.329 1.44-1.52.678-4.58-1.702-6.834-2.38-2.254-5.476-2.849-6.916-1.329-1.439 1.52-.677 4.58 1.703 6.834ZM215.984 192.064c3.751 1.843 7.98.918 9.446-2.066 1.466-2.983-.387-6.896-4.138-8.739-3.751-1.843-7.98-.918-9.446 2.065-1.466 2.984.387 6.897 4.138 8.74ZM189.313 221c.791 1.858 3.513 2.479 6.081 1.387 2.567-1.093 4.007-3.486 3.216-5.344-.791-1.859-3.514-2.48-6.081-1.387-2.567 1.092-4.007 3.485-3.216 5.344ZM147.309 278.652c.122 3.938 2.303 7.066 4.871 6.986 2.569-.08 4.552-3.336 4.43-7.274-.122-3.937-2.303-7.065-4.871-6.985-2.569.079-4.552 3.336-4.43 7.273ZM408.584 90.83c.827 1.584 3.718 1.71 6.455.28s4.284-3.874 3.457-5.459c-.828-1.584-3.718-1.71-6.455-.28-2.738 1.43-4.285 3.874-3.457 5.459ZM193.766 296.419c.33 1.793 1.49 3.082 2.59 2.879 1.1-.202 1.724-1.82 1.393-3.612-.33-1.793-1.489-3.082-2.589-2.879-1.1.202-1.724 1.82-1.394 3.612ZM169.816 293.458c1.289.465 2.969-.919 3.754-3.092.784-2.173.375-4.312-.913-4.777-1.289-.465-2.969.919-3.754 3.093-.784 2.173-.375 4.311.913 4.776ZM210.438 297.359c1.843.577 4.18-1.642 5.22-4.958 1.04-3.316.389-6.472-1.453-7.05-1.843-.578-4.18 1.641-5.22 4.957s-.389 6.473 1.453 7.051ZM207.376 317.091c2.004 1.332 4.411 1.237 5.375-.213.964-1.451.12-3.706-1.884-5.039-2.005-1.333-4.411-1.237-5.375.213-.964 1.45-.121 3.706 1.884 5.039ZM174.853 283.886c1.302 1.018 3.65.19 5.245-1.85 1.594-2.039 1.832-4.518.53-5.535-1.301-1.018-3.649-.19-5.244 1.849-1.595 2.04-1.833 4.518-.531 5.536ZM309.548 201.316c2.101 1.397 4.624 1.296 5.636-.225 1.011-1.521.127-3.887-1.974-5.284-2.101-1.396-4.624-1.296-5.635.225-1.012 1.522-.128 3.887 1.973 5.284ZM297.945 209.249c.769 2.754 4.481 4.125 8.29 3.061 3.809-1.064 6.273-4.159 5.504-6.914-.769-2.754-4.481-4.125-8.29-3.061-3.809 1.064-6.274 4.16-5.504 6.914ZM383.627 61.48c.862 2 4.2 2.486 7.456 1.084 3.255-1.403 5.196-4.162 4.334-6.163-.862-2-4.2-2.486-7.456-1.083-3.255 1.402-5.196 4.161-4.334 6.162ZM184.206 237.609c2.173 1.07 4.563.663 5.337-.909.775-1.573-.359-3.716-2.532-4.786-2.173-1.071-4.563-.664-5.337.909-.775 1.573.359 3.715 2.532 4.786ZM175.846 230.724c.658 1.528 3.209 1.898 5.697.826 2.488-1.071 3.971-3.179 3.313-4.707-.659-1.529-3.209-1.899-5.697-.827s-3.971 3.179-3.313 4.708ZM89.214 72.201c2.167 1.065 4.55.655 5.32-.914.772-1.57-.36-3.706-2.527-4.771-2.167-1.065-4.55-.656-5.32.914-.772 1.57.36 3.706 2.527 4.771ZM80.49 65.473c.664 1.542 3.24 1.915 5.753.833 2.512-1.082 4.01-3.21 3.346-4.753-.664-1.542-3.24-1.915-5.752-.833-2.513 1.083-4.012 3.21-3.347 4.753ZM248.424 321.083c3.048 2.026 6.529 2.151 7.774.279 1.244-1.872-.218-5.033-3.267-7.06-3.048-2.027-6.529-2.152-7.774-.279-1.244 1.872.218 5.033 3.267 7.06ZM262.48 272.967c.973 1.862 4.37 2.009 7.587.329 3.218-1.681 5.037-4.554 4.064-6.416-.973-1.863-4.37-2.01-7.587-.329-3.218 1.681-5.037 4.553-4.064 6.416ZM225.044 295.676c2.737.988 6.306-1.953 7.972-6.568 1.666-4.616.798-9.158-1.94-10.146-2.737-.988-6.306 1.953-7.972 6.568-1.666 4.616-.798 9.158 1.94 10.146ZM239.443 266.319c1.666 1.911 5.726 1.098 9.069-1.816 3.344-2.914 4.704-6.825 3.038-8.736-1.665-1.911-5.725-1.098-9.069 1.816-3.343 2.914-4.703 6.825-3.038 8.736ZM272.325 287.126c2.119.664 4.807-1.889 6.004-5.703 1.196-3.814.448-7.445-1.672-8.11-2.119-.665-4.807 1.888-6.004 5.702-1.196 3.815-.448 7.446 1.672 8.111ZM329.473 22.43c.91 1.742 4.089 1.88 7.101.306 3.012-1.573 4.715-4.261 3.805-6.004-.911-1.742-4.09-1.88-7.102-.306-3.011 1.573-4.714 4.261-3.804 6.004ZM338.797 37.334c2.282.715 5.177-2.039 6.468-6.152 1.29-4.114.486-8.028-1.796-8.744-2.282-.716-5.178 2.038-6.468 6.152-1.29 4.113-.486 8.028 1.796 8.744ZM252.363 310.741c3.825 2.543 8.42 2.358 10.262-.413 1.843-2.772.235-7.08-3.59-9.623-3.825-2.543-8.42-2.358-10.262.414-1.843 2.771-.235 7.079 3.59 9.622ZM231.8 272.295c1.229.961 3.444.18 4.948-1.744 1.504-1.923 1.728-4.261.499-5.222-1.228-.961-3.443-.18-4.948 1.743-1.504 1.924-1.727 4.262-.499 5.223ZM164.565 265.882c1.231.963 3.451.182 4.957-1.745 1.507-1.927 1.73-4.269.498-5.232-1.231-.963-3.451-.182-4.957 1.744-1.507 1.927-1.73 4.27-.498 5.233ZM223.242 310.174c2.101 2.585 5.146 3.591 6.801 2.246 1.654-1.345 1.292-4.531-.81-7.117-2.101-2.585-5.146-3.591-6.801-2.246-1.654 1.345-1.292 4.531.81 7.117ZM238.888 298.22c.654 2.341 3.807 3.506 7.042 2.602 3.235-.904 5.328-3.534 4.674-5.874-.654-2.341-3.806-3.506-7.042-2.602-3.235.903-5.328 3.533-4.674 5.874ZM82.808 91.304c3.845 2.555 8.462 2.37 10.313-.414 1.851-2.785.235-7.114-3.61-9.67-3.845-2.555-8.462-2.37-10.313.414-1.85 2.785-.235 7.114 3.61 9.67ZM68.963 78.869c.698 2.497 4.061 3.74 7.513 2.776 3.451-.964 5.684-3.77 4.986-6.267-.697-2.497-4.06-3.74-7.512-2.776-3.451.964-5.684 3.77-4.987 6.267ZM168.549 219.694c3.712 2.468 8.17 2.289 9.957-.398 1.787-2.688.226-6.868-3.487-9.336-3.712-2.468-8.17-2.29-9.957.398-1.787 2.688-.226 6.867 3.487 9.336ZM154.694 207.405c.685 2.453 3.987 3.674 7.375 2.727 3.388-.946 5.579-3.701 4.894-6.154-.685-2.452-3.987-3.673-7.375-2.727-3.388.946-5.579 3.702-4.894 6.154ZM277.843 211.867c3.767 2.504 8.292 2.322 10.107-.408 1.814-2.729.231-6.972-3.536-9.477-3.767-2.504-8.292-2.322-10.107.408-1.815 2.729-.232 6.972 3.536 9.477ZM264.465 199.39c.637 2.281 3.71 3.416 6.863 2.535 3.153-.88 5.193-3.443 4.556-5.724-.637-2.281-3.71-3.417-6.863-2.536-3.153.881-5.193 3.444-4.556 5.725ZM247.828 224.104c3.844 2.556 8.462 2.371 10.313-.413 1.851-2.785.235-7.114-3.61-9.67-3.845-2.556-8.462-2.371-10.313.414-1.851 2.784-.235 7.113 3.61 9.669ZM234.467 211.535c.642 2.3 3.74 3.444 6.92 2.556 3.179-.887 5.236-3.472 4.593-5.771-.642-2.3-3.74-3.444-6.919-2.556-3.18.888-5.236 3.472-4.594 5.771ZM281.734 123.801c2.733 1.816 6.014 1.685 7.33-.294 1.315-1.978.166-5.055-2.567-6.872-2.732-1.817-6.014-1.685-7.33.293-1.315 1.979-.166 5.056 2.567 6.873ZM323.72 152.896c2.733 1.816 6.014 1.685 7.33-.294 1.315-1.978.166-5.055-2.567-6.872-2.732-1.817-6.014-1.686-7.33.293-1.315 1.979-.166 5.056 2.567 6.873ZM249.093 273.822c-.269 2.7.94 5.03 2.7 5.205 1.76.176 3.404-1.871 3.673-4.57.269-2.7-.94-5.03-2.7-5.205-1.76-.175-3.404 1.871-3.673 4.57ZM305.625 253.49c2 .985 4.199.61 4.912-.837.713-1.448-.33-3.42-2.329-4.405-2-.985-4.199-.61-4.912.837-.713 1.448.33 3.42 2.329 4.405Z" fill="#2A5EBC"/><path d="M162.35 200.48c1.512.894 3.873-.303 5.272-2.672s1.307-5.014-.205-5.907c-1.513-.894-3.874.303-5.273 2.672-1.399 2.369-1.307 5.014.206 5.907ZM172.209 182.613c.804 1.54 3.617 1.66 6.282.268 2.665-1.393 4.173-3.77 3.369-5.31-.805-1.54-3.618-1.66-6.283-.267-2.665 1.392-4.173 3.769-3.368 5.309ZM159.128 181.178c1.415 1.107 3.966.207 5.699-2.01 1.733-2.216 1.992-4.909.577-6.015-1.414-1.106-3.966-.206-5.699 2.01-1.733 2.216-1.991 4.909-.577 6.015ZM75.143 215.803c4.56 2.241 9.703 1.115 11.486-2.515 1.783-3.629-.468-8.388-5.029-10.628-4.56-2.241-9.703-1.115-11.486 2.515-1.783 3.629.468 8.388 5.029 10.628ZM81.012 227.716c1.314 1.028 3.683.193 5.292-1.865 1.61-2.058 1.849-4.559.535-5.586-1.314-1.028-3.683-.192-5.293 1.865-1.609 2.058-1.848 4.559-.534 5.586ZM142.653 180.343c-.263 2.638.92 4.915 2.641 5.087 1.721.171 3.33-1.828 3.592-4.466.263-2.638-.92-4.915-2.641-5.087-1.721-.171-3.33 1.828-3.592 4.466ZM327.24 196.945c.989 1.41 3.765 1.168 6.202-.541 2.437-1.708 3.611-4.236 2.622-5.646-.988-1.41-3.765-1.168-6.202.54-2.437 1.709-3.61 4.237-2.622 5.647ZM289.694 199.427c1.015 1.448 3.87 1.197 6.376-.56 2.507-1.757 3.716-4.356 2.7-5.804-1.015-1.448-3.87-1.197-6.376.56-2.507 1.757-3.715 4.356-2.7 5.804ZM171.083 150.493c-.614 3.496.461 6.605 2.401 6.946 1.94.341 4.011-2.216 4.625-5.711.614-3.495-.461-6.605-2.401-6.946-1.94-.341-4.011 2.216-4.625 5.711ZM320.709 197.84c1.489.88 3.812-.295 5.187-2.624 1.376-2.329 1.283-4.931-.206-5.81-1.489-.88-3.812.295-5.188 2.624-1.375 2.33-1.283 4.931.207 5.81ZM289.909 181.855c.124 4.015 2.348 7.204 4.966 7.123 2.619-.081 4.641-3.401 4.516-7.416-.124-4.015-2.348-7.204-4.966-7.123-2.619.081-4.641 3.401-4.516 7.416ZM306.301 273.947c3.677 2.444 7.876 2.594 9.378.335 1.501-2.259-.262-6.072-3.939-8.516-3.677-2.445-7.875-2.595-9.377-.336-1.502 2.259.261 6.072 3.938 8.517ZM323.337 214.313c.776 1.486 3.488 1.602 6.057.259 2.569-1.342 4.023-3.634 3.247-5.119-.776-1.485-3.488-1.601-6.057-.259-2.569 1.342-4.023 3.634-3.247 5.119ZM280.807 101.157c.326 1.769 1.473 3.042 2.561 2.841 1.089-.2 1.707-1.798 1.381-3.567-.326-1.77-1.473-3.042-2.561-2.842-1.088.2-1.707 1.798-1.381 3.568ZM318.869 242.852c1.976.62 4.482-1.763 5.599-5.323 1.116-3.559.42-6.947-1.555-7.567-1.976-.62-4.482 1.764-5.599 5.323-1.116 3.56-.42 6.948 1.555 7.567Z" fill="#2A5EBC"/><path d="M319.066 248.59c1.946 1.294 4.285 1.199 5.223-.212.939-1.412.121-3.605-1.825-4.899-1.947-1.294-4.285-1.199-5.224.213-.938 1.411-.121 3.604 1.826 4.898ZM285.457 222.265c1.341 1.049 3.76.197 5.403-1.903 1.642-2.101 1.886-4.654.545-5.703-1.341-1.049-3.76-.196-5.403 1.904-1.642 2.101-1.886 4.654-.545 5.702ZM370.803 133.882c1.409 1.101 3.948.207 5.671-1.997 1.724-2.204 1.979-4.883.571-5.985-1.409-1.101-3.947-.207-5.671 1.997-1.724 2.204-1.979 4.883-.571 5.985ZM279.549 258.287c2.346 2.885 5.744 4.008 7.591 2.507 1.847-1.501 1.443-5.058-.903-7.944-2.346-2.885-5.744-4.008-7.591-2.507-1.847 1.501-1.443 5.058.903 7.944ZM289.971 275.092c2.282 1.517 5.11 1.276 6.316-.538 1.206-1.815.334-4.515-1.948-6.032-2.281-1.517-5.109-1.276-6.315.539-1.206 1.814-.334 4.515 1.947 6.031ZM305.95 222.098c-.523 5.256 1.831 9.794 5.258 10.135 3.427.341 6.63-3.643 7.153-8.9.524-5.256-1.831-9.794-5.258-10.135-3.427-.341-6.63 3.643-7.153 8.9ZM332.41 231.919c1.147.414 2.641-.815 3.337-2.744.696-1.929.331-3.829-.816-4.243-1.146-.413-2.64.815-3.336 2.744-.697 1.93-.332 3.829.815 4.243ZM335.448 214.244c1.35 1.056 3.786.197 5.44-1.919 1.655-2.115 1.901-4.687.551-5.743-1.351-1.056-3.787-.197-5.441 1.919s-1.901 4.687-.55 5.743ZM335.619 243.876c2.062 2.538 5.049 3.526 6.671 2.208 1.621-1.318 1.264-4.443-.799-6.981-2.062-2.537-5.049-3.526-6.671-2.208-1.621 1.318-1.264 4.444.799 6.981ZM252.582 255.578c2.076 1.38 4.647 1.161 5.744-.489 1.097-1.65.304-4.106-1.772-5.486-2.075-1.38-4.647-1.161-5.744.489-1.096 1.65-.303 4.106 1.772 5.486ZM336.968 232.012c.734 2.628 4.272 3.936 7.902 2.922 3.631-1.014 5.979-3.966 5.245-6.594s-4.272-3.936-7.902-2.922c-3.631 1.014-5.979 3.966-5.245 6.594ZM152.004 109.125c1.96 1.303 4.314 1.207 5.259-.214.945-1.422.122-3.63-1.837-4.932-1.96-1.303-4.314-1.207-5.259.215-.944 1.421-.122 3.629 1.837 4.931ZM172.44 89.051c1.216.44 2.801-.867 3.541-2.916.74-2.05.354-4.066-.862-4.505-1.216-.439-2.801.867-3.541 2.916-.739 2.05-.353 4.066.862 4.505ZM175.708 100.784c2.065 2.541 5.056 3.53 6.681 2.209 1.625-1.32 1.268-4.45-.797-6.99-2.065-2.541-5.056-3.53-6.681-2.21-1.625 1.32-1.268 4.45.797 6.991ZM176.781 88.989c.764 2.736 4.45 4.097 8.233 3.04 3.784-1.056 6.231-4.13 5.467-6.866-.764-2.736-4.45-4.097-8.234-3.04-3.783 1.056-6.23 4.13-5.466 6.866ZM314.621 108.823c2.505 1.147 5.821-.729 7.407-4.192 1.585-3.462.84-7.198-1.665-8.346-2.505-1.147-5.822.73-7.407 4.192s-.84 7.199 1.665 8.346ZM272.055 163.355c1.216.438 2.801-.867 3.541-2.917.74-2.049.354-4.066-.862-4.505-1.216-.439-2.801.867-3.541 2.916-.739 2.05-.353 4.067.862 4.506ZM269.857 151.803c2.165 2.664 5.301 3.701 7.003 2.317 1.703-1.384 1.328-4.665-.837-7.328-2.165-2.664-5.3-3.701-7.003-2.317-1.703 1.383-1.328 4.665.837 7.328ZM270.286 140.535c.779 2.788 4.534 4.175 8.388 3.099 3.854-1.076 6.347-4.209 5.568-6.997-.778-2.788-4.534-4.175-8.388-3.099-3.854 1.076-6.347 4.209-5.568 6.997ZM300.556 148.936c.768 2.75 4.473 4.12 8.275 3.058 3.801-1.062 6.261-4.153 5.492-6.903-.768-2.751-4.473-4.12-8.274-3.058-3.802 1.061-6.261 4.152-5.493 6.903ZM360.752 203.38c-.284 2.846.991 5.302 2.847 5.487 1.856.185 3.591-1.972 3.874-4.818.283-2.846-.992-5.302-2.848-5.487-1.856-.185-3.59 1.972-3.873 4.818ZM231.402 40.767c1.775.32 3.636-1.76 4.158-4.646.522-2.886-.494-5.486-2.269-5.807-1.774-.32-3.636 1.76-4.158 4.646-.521 2.886.494 5.486 2.269 5.807ZM243.598 86.77c.733 1.74 3.623 2.185 6.455.992 2.831-1.192 4.533-3.57 3.8-5.31-.733-1.74-3.623-2.185-6.454-.992-2.832 1.192-4.534 3.57-3.801 5.31ZM243.442 111.467c-.437 4.183 1.171 7.78 3.592 8.033 2.421.253 4.738-2.934 5.175-7.117.437-4.184-1.171-7.781-3.592-8.034-2.421-.253-4.738 2.934-5.175 7.118ZM304.314 164.146c.674 1.601 3.011 2.146 5.219 1.216 2.207-.93 3.45-2.981 2.776-4.583-.674-1.601-3.011-2.146-5.218-1.216-2.208.929-3.451 2.981-2.777 4.583ZM260.846 79.164c.817 2.452 2.75 4.017 4.318 3.495 1.568-.522 2.176-2.934 1.359-5.386-.817-2.453-2.75-4.018-4.318-3.495-1.568.522-2.176 2.933-1.359 5.386ZM199.235 53.457c.808 1.92 3.417 2.652 5.828 1.636 2.411-1.015 3.711-3.393 2.903-5.312-.808-1.919-3.417-2.651-5.828-1.636-2.411 1.015-3.711 3.393-2.903 5.312ZM174.353 114.656c.683 1.629 3.39 2.046 6.044.931 2.655-1.114 4.253-3.337 3.569-4.966-.683-1.628-3.389-2.045-6.044-.931-2.655 1.115-4.253 3.338-3.569 4.966ZM176.792 165.655c2.421 2.985 5.725 4.316 7.382 2.973 1.656-1.343 1.037-4.851-1.384-7.836-2.42-2.985-5.724-4.316-7.381-2.973-1.656 1.342-1.037 4.851 1.383 7.836ZM209.829 119.965c3.587 1.531 7.181 1.168 8.025-.811.845-1.978-1.379-4.824-4.966-6.355-3.588-1.532-7.181-1.169-8.026.81-.844 1.979 1.379 4.824 4.967 6.356ZM329.369 170.262c1.286 3.064 5.757 4.109 9.987 2.334 4.229-1.775 6.615-5.699 5.329-8.763-1.286-3.064-5.758-4.109-9.987-2.334-4.23 1.775-6.616 5.699-5.329 8.763ZM197.46 102.673c.209 2.146 3.097 3.621 6.452 3.294 3.355-.326 5.906-2.33 5.697-4.475-.209-2.145-3.097-3.62-6.452-3.294-3.355.326-5.906 2.33-5.697 4.475ZM198.731 115.884c1.72.557 3.737-.917 4.506-3.291.769-2.375-.001-4.751-1.721-5.308-1.719-.557-3.736.917-4.505 3.291-.769 2.375.001 4.751 1.72 5.308ZM321.77 169.905c1.918.621 4.169-1.024 5.027-3.675.859-2.651 0-5.303-1.918-5.924-1.918-.622-4.169 1.024-5.028 3.674-.858 2.651.001 5.304 1.919 5.925ZM364.116 192.769c1.94.629 4.217-1.035 5.085-3.715.868-2.68-.001-5.362-1.941-5.99-1.941-.629-4.217 1.034-5.085 3.715-.868 2.68.001 5.362 1.941 5.99ZM174.603 48.412c1.005 2.395 4.983 3.008 8.884 1.37 3.902-1.637 6.25-4.906 5.245-7.3-1.005-2.395-4.983-3.008-8.884-1.37-3.902 1.637-6.25 4.906-5.245 7.3ZM247.458 142.179c1.671.399 3.585-1.621 4.275-4.512.69-2.891-.105-5.558-1.776-5.957-1.672-.399-3.586 1.621-4.276 4.512-.69 2.891.106 5.558 1.777 5.957ZM254.468 171.059c2.363 1.395 4.918 1.443 5.707.107.789-1.336-.487-3.551-2.849-4.946-2.363-1.395-4.917-1.443-5.707-.107-.789 1.336.487 3.551 2.849 4.946ZM329.818 67.71c2.977 1.611 6.849.225 8.647-3.096 1.798-3.322.841-7.321-2.137-8.933-2.978-1.612-6.849-.226-8.647 3.096-1.798 3.321-.841 7.32 2.137 8.933ZM254.753 162.441c2.055 3.343 5.225 5.128 7.081 3.988 1.856-1.141 1.696-4.776-.359-8.119-2.055-3.343-5.225-5.129-7.081-3.988-1.857 1.141-1.696 4.776.359 8.119ZM235.134 81.56c2.077 3.38 5.281 5.184 7.157 4.031 1.876-1.153 1.713-4.827-.364-8.206-2.076-3.38-5.281-5.185-7.157-4.032-1.876 1.153-1.713 4.828.364 8.207ZM273.733 173.632c.459 1.668 2.697 2.507 4.999 1.874 2.302-.633 3.797-2.498 3.338-4.166-.458-1.668-2.697-2.507-4.999-1.874-2.302.633-3.797 2.499-3.338 4.166ZM237.379 158.94c1.993 2.114 4.728 2.774 6.108 1.473 1.379-1.3.882-4.069-1.112-6.184-1.994-2.114-4.729-2.774-6.108-1.473-1.38 1.301-.882 4.069 1.112 6.184ZM292.578 172.486c1.681.536 3.753-1.25 4.627-3.989.874-2.739.219-5.395-1.462-5.931-1.681-.536-3.752 1.25-4.626 3.989-.874 2.739-.22 5.394 1.461 5.931ZM308.349 182.774c1.763.562 3.934-1.31 4.85-4.182.917-2.872.231-5.656-1.531-6.218-1.763-.563-3.934 1.31-4.85 4.182-.917 2.872-.231 5.656 1.531 6.218ZM132.916 158.449c.12 3.88 2.271 6.961 4.805 6.883 2.533-.079 4.49-3.287 4.37-7.167-.121-3.88-2.272-6.961-4.805-6.882-2.534.078-4.49 3.287-4.37 7.166ZM187.502 195.369c.115 4.221 2.442 7.582 5.197 7.506 2.755-.075 4.894-3.558 4.779-7.78-.116-4.221-2.443-7.582-5.198-7.506-2.755.075-4.894 3.558-4.778 7.78ZM198.779 206.272c1.615.515 3.603-1.195 4.441-3.82.837-2.625.207-5.171-1.408-5.686-1.615-.515-3.603 1.195-4.44 3.82-.838 2.625-.208 5.171 1.407 5.686ZM145.327 75.602c.124 4.027 2.355 7.225 4.981 7.144 2.626-.082 4.654-3.412 4.53-7.438-.125-4.027-2.355-7.225-4.982-7.144-2.626.082-4.654 3.412-4.529 7.438ZM149.845 67.078c1.663.53 3.711-1.233 4.574-3.94.863-2.706.215-5.33-1.447-5.86-1.663-.53-3.711 1.233-4.574 3.94-.864 2.706-.216 5.33 1.447 5.86ZM4.89 178.998c1.876 1.114 4.783-.316 6.492-3.195 1.709-2.878 1.572-6.115-.304-7.229-1.877-1.114-4.784.316-6.493 3.195-1.708 2.878-1.572 6.115.305 7.229ZM11.575 168.407c.913 1.093 3.093.778 4.87-.705 1.776-1.483 2.477-3.571 1.564-4.664-.912-1.094-3.092-.778-4.869.704-1.777 1.483-2.477 3.572-1.565 4.665ZM280.222 97.751c1.769.422 3.795-1.713 4.524-4.77.73-3.056-.113-5.876-1.882-6.298-1.769-.423-3.795 1.713-4.524 4.77-.73 3.056.113 5.876 1.882 6.298ZM296.169 102.759c1.909 3.105 4.854 4.764 6.579 3.704 1.724-1.059 1.574-4.436-.334-7.542-1.909-3.106-4.854-4.764-6.579-3.705-1.724 1.06-1.574 4.437.334 7.543ZM248.648 125.984c.472 2.435 2.118 4.164 3.675 3.862 1.558-.302 2.438-2.521 1.966-4.956-.473-2.435-2.118-4.164-3.676-3.862-1.557.302-2.437 2.521-1.965 4.956ZM279.152 154.28c-.076 2.258 2.726 4.185 6.257 4.302 3.532.118 6.455-1.618 6.53-3.877.075-2.259-2.726-4.185-6.258-4.302-3.531-.118-6.454 1.618-6.529 3.877ZM94.863 139.502c1.121.404 2.583-.799 3.265-2.688.682-1.89.326-3.749-.796-4.154-1.12-.404-2.582.799-3.264 2.688-.682 1.889-.326 3.749.795 4.154ZM92.484 128.297c2.214 2.724 5.42 3.784 7.163 2.368 1.741-1.415 1.359-4.771-.855-7.495-2.214-2.723-5.42-3.784-7.163-2.368-1.741 1.416-1.359 4.771.855 7.495ZM101.896 130.694c-.074 2.239 2.703 4.149 6.203 4.265 3.501.117 6.399-1.604 6.473-3.843.075-2.24-2.703-4.15-6.203-4.266-3.5-.117-6.398 1.604-6.473 3.844ZM283.054 246.684c1.209.436 2.785-.863 3.52-2.901.736-2.039.353-4.045-.856-4.481-1.208-.436-2.784.863-3.52 2.901-.736 2.039-.352 4.045.856 4.481ZM280.711 235.267c2.257 2.778 5.529 3.859 7.307 2.414 1.777-1.445 1.388-4.869-.87-7.646-2.257-2.778-5.529-3.858-7.307-2.413-1.777 1.445-1.388 4.868.87 7.645ZM290.167 237.632c-.075 2.247 2.712 4.163 6.224 4.28 3.512.117 6.419-1.61 6.494-3.857.075-2.247-2.712-4.164-6.224-4.28-3.511-.117-6.419 1.61-6.494 3.857ZM74.84 156.401c2.096 2.58 5.133 3.585 6.781 2.245 1.649-1.34 1.286-4.518-.811-7.097-2.097-2.58-5.133-3.585-6.782-2.245-1.648 1.34-1.285 4.518.812 7.097ZM75.613 145.089c.73 2.613 4.25 3.913 7.861 2.904 3.612-1.008 5.948-3.944 5.218-6.557-.73-2.613-4.249-3.913-7.86-2.904-3.612 1.008-5.948 3.944-5.219 6.557ZM64.032 163.181c1.95 3.172 4.957 4.866 6.717 3.784 1.76-1.082 1.608-4.531-.341-7.702-1.95-3.172-4.957-4.866-6.718-3.784-1.76 1.082-1.607 4.53.342 7.702ZM83.96 158.932c-.075 2.282 2.757 4.228 6.327 4.347 3.57.119 6.526-1.635 6.602-3.917.076-2.282-2.757-4.228-6.327-4.347-3.57-.118-6.525 1.635-6.601 3.917ZM291.08 136.344c2.443 1.16 5.724-.637 7.327-4.014 1.603-3.378.922-7.056-1.522-8.216-2.443-1.16-5.724.637-7.327 4.015-1.603 3.377-.922 7.055 1.522 8.215ZM272.427 113.859c1.744 1.85 4.138 2.427 5.345 1.288 1.208-1.139.774-3.562-.97-5.412-1.745-1.85-4.138-2.426-5.346-1.287-1.208 1.138-.773 3.561.971 5.411ZM359.133 41.779c1.698.307 3.48-1.686 3.98-4.45.499-2.765-.472-5.255-2.171-5.562-1.698-.307-3.48 1.685-3.98 4.45s.472 5.255 2.171 5.562ZM340.736 56.4c.615 1.462 3.043 1.835 5.422.834 2.379-1.002 3.808-3 3.192-4.462-.615-1.462-3.043-1.836-5.422-.834-2.379 1.002-3.808 3-3.192 4.462ZM384.505 107.562c-.316 3.021.845 5.618 2.592 5.801 1.747.183 3.42-2.119 3.736-5.14.315-3.021-.845-5.619-2.593-5.801-1.747-.183-3.42 2.118-3.735 5.14ZM371.073 89.901c3.47 1.482 6.944 1.133 7.76-.778.816-1.912-1.336-4.662-4.806-6.143-3.47-1.481-6.945-1.133-7.761.779-.815 1.91 1.336 4.661 4.807 6.142ZM359.025 59.978c2.165 2.914 5.322 4.234 7.053 2.949 1.73-1.285 1.378-4.69-.786-7.604-2.165-2.914-5.322-4.234-7.053-2.949-1.73 1.286-1.378 4.69.786 7.604ZM355.006 88.343c2.258.866 4.873-.477 5.839-3 .966-2.522-.081-5.268-2.339-6.134-2.259-.865-4.873.478-5.84 3-.966 2.523.081 5.269 2.34 6.134ZM372.839 102.537c2.42 2.985 5.725 4.316 7.381 2.973 1.656-1.343 1.037-4.851-1.383-7.836-2.42-2.985-5.725-4.316-7.381-2.973-1.656 1.343-1.037 4.851 1.383 7.836Z" fill="#2A5EBC"/><path d="M347.917 78.974c.672 1.594 3 2.135 5.2 1.209 2.201-.927 3.441-2.97 2.769-4.565-.671-1.594-2.999-2.135-5.2-1.209-2.2.927-3.44 2.97-2.769 4.565ZM282.959 65.452c.635 1.509 2.839 2.02 4.922 1.144 2.083-.877 3.256-2.811 2.621-4.32-.635-1.509-2.839-2.02-4.922-1.144-2.083.877-3.256 2.811-2.621 4.32ZM347.594 178.957c.861 2.585 2.899 4.234 4.551 3.684 1.652-.551 2.293-3.092 1.432-5.677-.861-2.585-2.898-4.234-4.55-3.684-1.652.551-2.294 3.092-1.433 5.677ZM368.556 48.679c.227 2.334 3.368 3.938 7.015 3.584 3.648-.355 6.421-2.535 6.194-4.869-.227-2.334-3.368-3.938-7.016-3.584-3.647.355-6.42 2.535-6.193 4.869ZM365.261 74.8c2.79.905 6.066-1.49 7.315-5.349 1.25-3.858.001-7.718-2.79-8.622-2.791-.904-6.066 1.491-7.316 5.35-1.249 3.858 0 7.718 2.791 8.622ZM393.05 101.855c3.768 3.077 8.45 3.578 10.457 1.12 2.007-2.457.58-6.944-3.188-10.02-3.768-3.078-8.449-3.58-10.456-1.121-2.008 2.457-.58 6.944 3.187 10.021ZM207.479 243.045c1.144 2.192 3.359 3.297 4.948 2.468 1.588-.829 1.948-3.278.804-5.471-1.145-2.192-3.36-3.297-4.948-2.468-1.589.83-1.948 3.279-.804 5.471ZM202.112 233.66c1.925 2.748 4.852 4.018 6.538 2.837 1.687-1.182 1.493-4.367-.432-7.115s-4.853-4.018-6.539-2.836c-1.686 1.181-1.493 4.366.433 7.114ZM354.452 154.984c-.336 3.222.901 5.991 2.764 6.186 1.863.194 3.646-2.259 3.982-5.481.337-3.221-.9-5.991-2.763-6.185-1.863-.195-3.646 2.259-3.983 5.48ZM345.204 129.845c3.488 1.489 7.057.959 7.972-1.184.915-2.142-1.172-5.086-4.66-6.575-3.487-1.489-7.056-.959-7.971 1.184-.915 2.142 1.172 5.086 4.659 6.575ZM339.499 146.531c3.434 4.235 8.126 6.122 10.48 4.214 2.354-1.909 1.478-6.889-1.956-11.125-3.434-4.235-8.126-6.121-10.48-4.213-2.353 1.908-1.478 6.889 1.956 11.124ZM161.577 70.84c.995 2.37 4.93 2.977 8.789 1.358 3.859-1.62 6.181-4.854 5.186-7.224-.995-2.37-4.929-2.977-8.788-1.358-3.859 1.62-6.181 4.854-5.187 7.224ZM370.343 121.67c.846 2.54 2.848 4.162 4.471 3.621 1.623-.541 2.252-3.039 1.406-5.579-.847-2.541-2.848-4.162-4.471-3.622-1.623.541-2.252 3.039-1.406 5.58ZM343.017 99.226c.229 2.357 3.403 3.977 7.089 3.619 3.686-.359 6.489-2.56 6.259-4.918-.229-2.357-3.403-3.977-7.089-3.619-3.686.359-6.488 2.56-6.259 4.918ZM121.773 133.593c1.39 1.087 3.899.201 5.604-1.978 1.704-2.18 1.959-4.828.569-5.915-1.39-1.087-3.899-.201-5.603 1.978-1.705 2.18-1.96 4.828-.57 5.915ZM137.523 139.834c2.32.889 5.005-.49 5.998-3.081.993-2.591-.083-5.412-2.403-6.301-2.32-.889-5.005.491-5.998 3.081-.993 2.591.083 5.413 2.403 6.301Z" fill="#2A5EBC"/><path d="M130.563 130.31c.655 1.555 2.927 2.082 5.074 1.178 2.147-.904 3.356-2.897 2.702-4.452-.655-1.555-2.926-2.083-5.073-1.179-2.148.904-3.357 2.898-2.703 4.453ZM320.458 94.025c.708 1.68 2.993 2.32 5.104 1.432 2.112-.89 3.25-2.972 2.542-4.652-.707-1.68-2.992-2.32-5.103-1.431-2.112.889-3.25 2.971-2.543 4.65ZM116.078 111.502c.741 3.751 3.539 6.358 6.249 5.822 2.711-.535 4.308-4.01 3.567-7.761-.741-3.751-3.539-6.358-6.25-5.822-2.711.535-4.307 4.01-3.566 7.761ZM118.28 102.033c1.635.997 3.977.14 5.23-1.915 1.254-2.054.945-4.529-.691-5.527-1.635-.997-3.977-.14-5.23 1.915-1.254 2.055-.945 4.529.691 5.527ZM338.556 115.682c1.73.56 3.76-.923 4.534-3.312s-.001-4.781-1.732-5.341c-1.73-.56-3.76.922-4.534 3.312-.774 2.389.002 4.78 1.732 5.341ZM360.898 137.72c2.08 1.699 4.665 1.975 5.774.617 1.109-1.357.321-3.835-1.759-5.534-2.08-1.699-4.665-1.975-5.774-.617s-.322 3.835 1.759 5.534ZM366.395 155.57c2.431.58 5.215-2.355 6.218-6.556 1.003-4.2-.156-8.076-2.587-8.657-2.432-.58-5.216 2.355-6.219 6.556-1.002 4.2.156 8.076 2.588 8.657ZM373.96 167.111c.007 5.72 2.661 10.353 5.927 10.348 3.266-.004 5.908-4.644 5.901-10.364-.008-5.719-2.662-10.352-5.928-10.348-3.266.004-5.908 4.644-5.9 10.364ZM210.203 91.779c-.311 2.979.834 5.54 2.559 5.72 1.724.18 3.374-2.089 3.686-5.068.311-2.979-.835-5.54-2.559-5.72-1.724-.18-3.374 2.088-3.686 5.068ZM196.323 85.33c3.79 4.674 8.965 6.758 11.559 4.655 2.594-2.103 1.625-7.597-2.165-12.272-3.79-4.674-8.965-6.758-11.559-4.655-2.594 2.103-1.625 7.598 2.165 12.272ZM221.901 92.291c2.42.578 5.192-2.344 6.19-6.526.998-4.182-.155-8.04-2.575-8.618-2.42-.578-5.192 2.344-6.19 6.526-.998 4.182.155 8.04 2.575 8.618ZM229.434 103.879c.007 5.735 2.671 10.381 5.948 10.377 3.278-.004 5.929-4.657 5.922-10.392-.008-5.735-2.671-10.381-5.949-10.377-3.277.005-5.928 4.657-5.921 10.392ZM362.82 170c.561 2.892 2.512 4.945 4.358 4.587 1.847-.358 2.889-2.992 2.328-5.883-.56-2.891-2.512-4.945-4.358-4.587-1.846.358-2.889 2.992-2.328 5.883ZM322.778 137.125c2.656 1.308 5.46 1.046 6.264-.585.804-1.632-.697-4.015-3.353-5.324-2.656-1.308-5.46-1.046-6.264.586-.804 1.632.698 4.015 3.353 5.323ZM395.027 56.564c.882 2.047 4.299 2.543 7.633 1.107 3.334-1.437 5.321-4.26 4.439-6.307-.881-2.048-4.299-2.543-7.633-1.107-3.333 1.436-5.321 4.26-4.439 6.307ZM429.267 53.858c2.417 1.607 5.177 1.705 6.164.22.988-1.486-.171-3.993-2.588-5.6-2.417-1.607-5.177-1.705-6.164-.22-.988 1.486.171 3.993 2.588 5.6ZM397.593 38.632c2.182 2.685 5.343 3.73 7.061 2.334 1.718-1.397 1.341-4.705-.841-7.39-2.182-2.684-5.343-3.729-7.061-2.333-1.718 1.397-1.341 4.705.841 7.39ZM417.341 66.836c3.974 2.642 8.628 2.628 10.395-.03 1.768-2.66-.021-6.956-3.994-9.598-3.974-2.642-8.628-2.628-10.395.031-1.768 2.659.021 6.956 3.994 9.597ZM229.873 157.334c2.122 1.042 4.515.519 5.344-1.169.829-1.688-.219-3.902-2.341-4.944-2.122-1.043-4.515-.52-5.344 1.168-.83 1.688.219 3.902 2.341 4.945Z" fill="#2A5EBC"/><path d="M216.224 159.182c3.958 2.631 8.593 2.617 10.355-.033 1.761-2.649-.02-6.929-3.977-9.56-3.958-2.631-8.594-2.616-10.355.033-1.761 2.649.02 6.93 3.977 9.56ZM416.38 37.62c.477 1.707 2.776 2.556 5.135 1.898 2.359-.66 3.885-2.578 3.409-4.285-.477-1.707-2.776-2.556-5.135-1.897-2.36.659-3.886 2.577-3.409 4.284ZM317.916 125.3c.49 2.531 2.197 4.328 3.812 4.015 1.614-.313 2.525-2.618 2.035-5.148-.491-2.531-2.198-4.328-3.812-4.015-1.615.313-2.526 2.618-2.035 5.148ZM390.486 124.603c1.94 2.058 4.602 2.7 5.945 1.434 1.344-1.267.859-3.962-1.081-6.02-1.941-2.058-4.603-2.7-5.946-1.434-1.343 1.266-.859 3.962 1.082 6.02ZM251.435 37.676c-.348 3.338.933 6.207 2.862 6.408 1.93.202 3.776-2.34 4.124-5.678.349-3.337-.933-6.206-2.862-6.408-1.929-.201-3.775 2.341-4.124 5.678ZM226.152 24.998c2.603 3.21 6.158 4.642 7.94 3.197 1.783-1.446 1.118-5.22-1.485-8.43s-6.158-4.642-7.941-3.196c-1.782 1.445-1.117 5.22 1.486 8.43ZM260.392 24.063c.814 2.441 2.738 4 4.298 3.48 1.561-.52 2.166-2.921 1.353-5.363-.813-2.441-2.738-3.999-4.298-3.48-1.56.52-2.166 2.921-1.353 5.363ZM245.648 20.995c2.221 1.814 4.98 2.11 6.162.663 1.183-1.448.341-4.092-1.881-5.906-2.221-1.813-4.98-2.11-6.162-.662-1.182 1.448-.34 4.091 1.881 5.905ZM309.35 72.497c.51 1.854 3.373 2.684 6.396 1.853 3.022-.831 5.059-3.008 4.549-4.863-.51-1.854-3.373-2.684-6.396-1.853-3.022.831-5.059 3.008-4.549 4.863ZM269.469 30.617c1.686.403 3.617-1.633 4.312-4.546.695-2.913-.108-5.602-1.794-6.004-1.686-.403-3.617 1.633-4.313 4.546-.695 2.914.108 5.602 1.795 6.004ZM264.675 60.397c2.312 4.148 6.185 6.396 8.648 5.022 2.464-1.374 2.587-5.85.275-9.997-2.313-4.147-6.185-6.395-8.649-5.021-2.464 1.374-2.587 5.85-.274 9.996ZM299.967 75.623c2.375 1.285 5.897-.622 7.867-4.26 1.969-3.638 1.639-7.63-.736-8.915-2.376-1.286-5.898.62-7.867 4.259-1.969 3.638-1.64 7.63.736 8.916ZM399.81 78.94c.491 1.787 3.249 2.587 6.16 1.787 2.91-.8 4.871-2.898 4.38-4.686-.492-1.787-3.25-2.587-6.16-1.787-2.91.8-4.871 2.898-4.38 4.685ZM390.376 81.841c2.276 1.233 5.653-.596 7.541-4.085 1.888-3.488 1.573-7.315-.704-8.547-2.277-1.233-5.653.596-7.541 4.085-1.888 3.488-1.573 7.315.704 8.547ZM292.156 35.079c1.884 3.066 4.791 4.704 6.492 3.658 1.702-1.045 1.553-4.378-.331-7.445-1.885-3.066-4.792-4.704-6.493-3.658-1.701 1.045-1.553 4.379.332 7.445ZM299.992 51.47c.919 3.343 5.406 5.025 10.022 3.756 4.616-1.27 7.612-5.009 6.693-8.352-.92-3.343-5.407-5.025-10.022-3.755-4.616 1.269-7.612 5.008-6.693 8.351ZM258.723 45.413c.583 3.005 2.611 5.14 4.529 4.768 1.919-.372 3.002-3.11 2.419-6.115-.583-3.005-2.611-5.14-4.529-4.768-1.919.372-3.001 3.11-2.419 6.115ZM281.342 75.123c-.074 2.224 2.681 4.12 6.154 4.236 3.474.115 6.349-1.594 6.423-3.818.074-2.224-2.682-4.12-6.155-4.236-3.473-.115-6.349 1.594-6.422 3.818ZM298.813 90.54c.952 3.463 5.254 5.3 9.608 4.102 4.355-1.197 7.113-4.974 6.161-8.437-.952-3.463-5.254-5.3-9.609-4.102-4.354 1.197-7.112 4.975-6.16 8.438ZM100.155 115.18c.503 1.829 3.324 2.647 6.302 1.828 2.977-.819 4.984-2.964 4.481-4.793-.503-1.828-3.324-2.647-6.302-1.828-2.977.819-4.984 2.965-4.481 4.793ZM90.722 118.289c2.356 1.275 5.848-.616 7.8-4.224 1.953-3.607 1.627-7.565-.729-8.84-2.355-1.274-5.847.617-7.8 4.224-1.952 3.608-1.626 7.566.73 8.84ZM98.69 150.274c.94 3.418 5.183 5.232 9.478 4.051 4.294-1.181 7.014-4.909 6.074-8.327-.94-3.418-5.183-5.232-9.478-4.051s-7.014 4.909-6.075 8.327Z" fill="#2A5EBC"/><path d="M282.814 41.848c3.297 3.498 7.818 4.59 10.099 2.439 2.281-2.15 1.457-6.729-1.84-10.226-3.297-3.497-7.819-4.588-10.1-2.438-2.281 2.15-1.457 6.728 1.841 10.225ZM329.467 52.284c1.652.527 3.686-1.225 4.543-3.913.858-2.687.214-5.293-1.438-5.82-1.652-.527-3.686 1.224-4.543 3.912-.858 2.688-.214 5.294 1.438 5.82ZM238.368 8.833c2.144 3.489 5.453 5.35 7.392 4.159 1.939-1.192 1.772-4.985-.372-8.473-2.143-3.489-5.453-5.35-7.391-4.159-1.939 1.192-1.773 4.985.371 8.473ZM310.298 31.637c-.074 2.216 2.679 4.106 6.148 4.221 3.469.116 6.342-1.587 6.415-3.803.074-2.216-2.679-4.107-6.148-4.222-3.469-.115-6.341 1.588-6.415 3.804ZM340.091 41.464c.495 1.798 2.729 2.752 4.99 2.13 2.261-.622 3.693-2.584 3.199-4.382-.495-1.799-2.729-2.753-4.99-2.13-2.261.621-3.693 2.583-3.199 4.382ZM253.94 97.383c1.005 3.657 5.544 5.597 10.137 4.334 4.594-1.263 7.502-5.251 6.497-8.908-1.006-3.656-5.545-5.597-10.138-4.334-4.593 1.263-7.502 5.251-6.496 8.908ZM172.363 132.649c-.453 4.33 1.212 8.053 3.717 8.315 2.506.261 4.904-3.037 5.356-7.367.453-4.33-1.212-8.052-3.717-8.314-2.506-.262-4.904 3.036-5.356 7.366ZM178.94 124.293c2.005 1.637 4.496 1.905 5.563.598 1.067-1.306.307-3.693-1.699-5.331-2.005-1.637-4.496-1.905-5.563-.599-1.067 1.307-.307 3.694 1.699 5.332ZM190.425 304.518c-.305 2.925.82 5.44 2.513 5.617 1.694.177 3.314-2.051 3.62-4.976.306-2.926-.819-5.44-2.513-5.617-1.693-.177-3.314 2.051-3.62 4.976ZM260.23 130.771c.186 1.825 1.245 3.212 2.365 3.098 1.121-.115 1.878-1.686 1.692-3.511-.186-1.825-1.244-3.212-2.365-3.098-1.12.114-1.878 1.686-1.692 3.511ZM264.309 127.134c1.635.306 3.39-1.738 3.918-4.564.528-2.827-.37-5.366-2.006-5.671-1.635-.306-3.39 1.737-3.918 4.564-.528 2.826.37 5.365 2.006 5.671ZM347.049 196.914c.544 1.95 3.161 2.922 5.845 2.173 2.683-.75 4.417-2.938 3.873-4.887-.545-1.949-3.161-2.922-5.845-2.172-2.684.749-4.418 2.937-3.873 4.886Z" fill="#2A5EBC"/><path d="M339.728 201.449c2.662.862 5.785-1.421 6.976-5.099 1.191-3.677-.001-7.358-2.663-8.22-2.661-.862-5.785 1.421-6.976 5.099-1.191 3.678.001 7.358 2.663 8.22ZM194.011 132.384c2.752 1.23 5.561.936 6.273-.658.712-1.593-.941-3.882-3.694-5.112-2.752-1.23-5.56-.936-6.272.657-.713 1.594.941 3.883 3.693 5.113ZM201.804 150.3c1.942 1.844 4.603 2.194 5.943.783 1.34-1.412.853-4.051-1.089-5.895-1.942-1.844-4.603-2.194-5.944-.783-1.34 1.412-.852 4.051 1.09 5.895ZM192.873 140.316c.632 2.75 4.223 4.271 8.021 3.399 3.798-.872 6.365-3.808 5.733-6.558-.631-2.749-4.222-4.271-8.02-3.399-3.798.872-6.365 3.808-5.734 6.558ZM242.934 193.684c.566 2.024 3.278 3.035 6.058 2.258 2.781-.776 4.577-3.046 4.011-5.07-.565-2.024-3.277-3.035-6.058-2.259-2.78.777-4.576 3.047-4.011 5.071ZM254.787 197.436c1.805 1.915 4.282 2.511 5.532 1.333 1.25-1.179.801-3.687-1.005-5.602-1.805-1.914-4.282-2.511-5.532-1.332s-.8 3.686 1.005 5.601ZM372.903 29.425c3.816 2.537 8.399 2.351 10.237-.414 1.838-2.765.235-7.063-3.58-9.6-3.816-2.536-8.399-2.35-10.238.414-1.838 2.765-.235 7.063 3.581 9.6ZM359.369 16.932c.661 2.366 3.847 3.545 7.116 2.632 3.269-.913 5.383-3.572 4.722-5.938-.661-2.367-3.847-3.546-7.116-2.633-3.269.913-5.383 3.572-4.722 5.939ZM301.279 123.178c1.816 1.926 4.306 2.527 5.561 1.343 1.256-1.184.802-3.705-1.014-5.631-1.815-1.926-4.305-2.527-5.561-1.343-1.256 1.184-.802 3.705 1.014 5.631ZM232.333 60.508c.649 2.322 3.764 3.481 6.958 2.59 3.194-.893 5.258-3.499 4.609-5.82-.648-2.323-3.763-3.482-6.958-2.59-3.194.892-5.257 3.498-4.609 5.82Z" fill="#2A5EBC"/><path d="M224.282 65.817c3.081.998 6.697-1.646 8.077-5.906s0-8.521-3.082-9.52c-3.081-.997-6.698 1.647-8.077 5.906-1.38 4.26 0 8.522 3.082 9.52ZM246.885 65.234c2.198 2.331 5.213 3.06 6.733 1.626 1.521-1.434.972-4.486-1.227-6.817-2.198-2.332-5.212-3.06-6.733-1.626-1.52 1.433-.971 4.486 1.227 6.817ZM105.348 190.902c1.649.298 3.379-1.637 3.864-4.321.485-2.685-.458-5.103-2.107-5.401-1.649-.298-3.379 1.637-3.864 4.321-.485 2.685.458 5.103 2.107 5.401ZM89.127 207.886c.673 1.598 3.326 2.006 5.926.911 2.6-1.095 4.162-3.278 3.49-4.876-.673-1.597-3.326-2.005-5.927-.91-2.6 1.094-4.162 3.277-3.489 4.875ZM129.589 228.006c-.299 2.852.798 5.304 2.45 5.476 1.651.173 3.231-1.999 3.529-4.851.298-2.852-.799-5.304-2.45-5.477-1.651-.172-3.231 2-3.529 4.852ZM146.606 239.4c.591 4.473 3.141 7.826 5.696 7.488 2.556-.337 4.148-4.237 3.557-8.71-.591-4.474-3.141-7.827-5.696-7.489-2.556.337-4.148 4.237-3.557 8.711ZM138.19 210.643c3.894 1.662 7.793 1.27 8.709-.876.916-2.146-1.497-5.234-5.391-6.896s-7.793-1.269-8.709.877c-.916 2.146 1.498 5.233 5.391 6.895ZM99.021 228.034c.612 1.452 2.732 1.944 4.736 1.1 2.005-.844 3.134-2.705 2.523-4.156-.611-1.452-2.732-1.945-4.736-1.101-2.004.844-3.134 2.705-2.523 4.157ZM37.3 208.43c.644 1.53 2.878 2.049 4.99 1.16 2.111-.889 3.3-2.85 2.656-4.38-.644-1.53-2.878-2.05-4.99-1.161-2.11.89-3.3 2.851-2.656 4.381ZM146.486 223.651c.874 2.625 2.943 4.3 4.621 3.741 1.678-.559 2.329-3.14 1.455-5.765-.875-2.626-2.944-4.3-4.622-3.742-1.678.559-2.329 3.141-1.454 5.766ZM133.236 111.829c.559 4.235 2.975 7.41 5.396 7.09 2.421-.32 3.93-4.013 3.37-8.248-.559-4.236-2.975-7.41-5.396-7.09-2.421.32-3.93 4.012-3.37 8.248ZM132.566 95.27c1.007 3.022 3.388 4.95 5.319 4.306 1.932-.643 2.681-3.614 1.675-6.636-1.007-3.021-3.389-4.95-5.32-4.306-1.931.643-2.68 3.614-1.674 6.636ZM119.141 193.711c.291 2.997 4.327 5.057 9.015 4.601 4.687-.456 8.251-3.255 7.96-6.252-.292-2.996-4.328-5.056-9.016-4.6-4.687.456-8.251 3.255-7.959 6.251ZM135.41 240.897c2.123 1.733 4.76 2.015 5.891.63 1.13-1.384.327-3.912-1.795-5.645-2.123-1.733-4.76-2.015-5.891-.63-1.13 1.385-.327 3.912 1.795 5.645ZM60.706 217.799c.768 1.823 3.246 2.519 5.536 1.554 2.29-.964 3.524-3.223 2.756-5.045-.767-1.823-3.245-2.519-5.535-1.554-2.29.964-3.524 3.223-2.757 5.045ZM167.484 242.116c1.652.394 3.545-1.602 4.227-4.459.682-2.857-.105-5.492-1.758-5.887-1.652-.394-3.544 1.602-4.226 4.459-.682 2.857.104 5.493 1.757 5.887ZM140.858 268.281c.725 3.739 3.247 6.394 5.633 5.931 2.385-.462 3.732-3.868 3.007-7.606-.725-3.738-3.247-6.394-5.633-5.931-2.385.463-3.732 3.868-3.007 7.606ZM39.142 129.852c.12 3.856 2.255 6.919 4.77 6.842 2.513-.078 4.455-3.268 4.335-7.124-.12-3.856-2.254-6.92-4.769-6.842-2.514.078-4.455 3.268-4.336 7.124Z" fill="#2A5EBC"/><path d="M34.216 120.223c.78 3.941 3.453 6.732 5.97 6.234 2.518-.498 3.927-4.097 3.147-8.038-.78-3.941-3.453-6.732-5.971-6.234-2.518.499-3.926 4.097-3.146 8.038ZM53.654 179.248c.115 3.71 2.168 6.656 4.585 6.581 2.418-.075 4.284-3.143 4.17-6.852-.115-3.709-2.168-6.656-4.586-6.581-2.417.075-4.284 3.143-4.17 6.852ZM46.938 168.876c.723 3.73 3.24 6.38 5.622 5.918 2.383-.462 3.727-3.86 3.004-7.591-.724-3.731-3.241-6.381-5.623-5.919-2.382.462-3.727 3.861-3.003 7.592ZM163.181 283.284c2.761 2.928 6.549 3.841 8.461 2.039 1.912-1.803 1.223-5.638-1.538-8.566-2.76-2.929-6.549-3.841-8.46-2.039-1.912 1.803-1.224 5.638 1.537 8.566ZM17.159 140.616c-.31 2.972.832 5.526 2.553 5.706 1.72.18 3.367-2.083 3.677-5.054.31-2.972-.832-5.526-2.553-5.706-1.72-.18-3.367 2.083-3.677 5.054ZM14.653 128.266c-.314 3.01.844 5.598 2.588 5.78 1.743.182 3.412-2.11 3.726-5.12.315-3.01-.844-5.597-2.587-5.78-1.744-.182-3.412 2.11-3.727 5.12ZM7.737 154.305c.78 2.343 2.625 3.838 4.12 3.34 1.493-.498 2.072-2.8 1.292-5.142-.78-2.343-2.624-3.838-4.119-3.34-1.494.497-2.073 2.8-1.293 5.142ZM50.702 215.623c.43 1.563 2.844 2.262 5.392 1.562 2.549-.701 4.266-2.537 3.836-4.1-.43-1.564-2.844-2.263-5.392-1.562-2.549.701-4.266 2.536-3.836 4.1ZM28.672 169.078c1.678.4 3.6-1.624 4.292-4.523.692-2.898-.108-5.573-1.787-5.973-1.679-.401-3.6 1.624-4.292 4.522-.692 2.898.108 5.573 1.787 5.974ZM11.005 215.47c1.862 3.339 4.98 5.149 6.963 4.043 1.985-1.106 2.083-4.71.221-8.049-1.862-3.34-4.98-5.15-6.964-4.044-1.984 1.107-2.082 4.71-.22 8.05ZM34.483 187.814c3.532 5.747 8.982 8.815 12.173 6.854 3.192-1.962 2.916-8.21-.616-13.957s-8.982-8.815-12.173-6.854c-3.192 1.962-2.916 8.21.616 13.957ZM59.884 198.952c.462 1.679 2.715 2.524 5.032 1.887s3.821-2.515 3.36-4.194c-.462-1.679-2.715-2.524-5.032-1.887-2.317.638-3.822 2.515-3.36 4.194ZM24.725 222.97c-.075 2.247 2.714 4.163 6.23 4.28 3.516.117 6.427-1.61 6.501-3.857.075-2.247-2.714-4.164-6.23-4.28-3.516-.117-6.427 1.609-6.501 3.857ZM39.512 224.288c.745 2.709 4.11 4.145 7.518 3.209 3.406-.937 5.564-3.893 4.82-6.602-.746-2.709-4.111-4.145-7.518-3.209-3.407.937-5.565 3.893-4.82 6.602ZM214.311 128.351c-.073 2.181 2.634 4.041 6.045 4.155 3.411.113 6.236-1.563 6.308-3.744.073-2.182-2.634-4.042-6.045-4.156-3.412-.113-6.236 1.563-6.308 3.745ZM228.815 129.688c.759 2.761 4.188 4.226 7.658 3.271 3.47-.954 5.668-3.966 4.909-6.727-.76-2.761-4.188-4.226-7.659-3.272-3.47.954-5.667 3.966-4.908 6.728ZM189.05 273.973c-.069 2.085 2.515 3.863 5.771 3.971 3.257.109 5.953-1.494 6.023-3.578.069-2.085-2.515-3.863-5.772-3.971-3.256-.108-5.952 1.494-6.022 3.578ZM201.736 274.967c.739 2.687 4.078 4.111 7.459 3.181 3.38-.929 5.522-3.861 4.783-6.547-.738-2.687-4.078-4.111-7.458-3.181-3.381.929-5.523 3.861-4.784 6.547ZM19.614 186.875c1.892 2.007 4.488 2.634 5.797 1.4 1.31-1.235.837-3.863-1.056-5.871-1.893-2.007-4.489-2.634-5.798-1.399-1.31 1.234-.836 3.862 1.057 5.87ZM72.289 197.93c1.585.498 3.528-1.193 4.34-3.777.812-2.584.185-5.083-1.4-5.581-1.585-.498-3.528 1.193-4.34 3.777-.812 2.584-.185 5.083 1.4 5.581ZM87.969 175.547c.476 1.731 3.149 2.506 5.97 1.73 2.82-.775 4.721-2.808 4.245-4.539-.476-1.731-3.148-2.506-5.97-1.73-2.82.775-4.721 2.808-4.245 4.539ZM36.797 157.737c1.052 1.886 2.811 2.909 3.93 2.285 1.119-.624 1.173-2.658.122-4.544-1.052-1.886-2.812-2.909-3.93-2.285-1.12.623-1.173 2.658-.122 4.544ZM30.559 146.932c.71 3.659 3.178 6.257 5.515 5.804 2.336-.453 3.655-3.786 2.946-7.445-.71-3.658-3.18-6.257-5.516-5.803-2.336.453-3.655 3.786-2.945 7.444Z" fill="#2A5EBC"/><path d="M61.737 180.548c-.066 1.977 2.386 3.662 5.476 3.765 3.09.103 5.65-1.416 5.715-3.393.066-1.976-2.386-3.661-5.477-3.764-3.09-.103-5.648 1.416-5.714 3.392ZM94.609 189.422c.494 1.799 2.728 2.753 4.99 2.131 2.261-.622 3.693-2.584 3.198-4.382-.494-1.799-2.728-2.753-4.99-2.131-2.26.622-3.693 2.584-3.198 4.382Z" fill="#2A5EBC"/></svg>
