<svg xmlns="http://www.w3.org/2000/svg" xmlns:xlink="http://www.w3.org/1999/xlink"><defs>
    <clipPath id="clip0_104_6">
      <rect width="66.6296" height="43.7814" fill="white" transform="translate(0.800293 0.0158691)"/>
    </clipPath>
  </defs><symbol id="icon-close" viewBox="0 0 20 20"><path d="M.293 18.291a1 1 0 101.414 1.414L10 11.413l8.292 8.292a1 1 0 101.414-1.414l-8.292-8.292 8.292-8.292A1 1 0 1018.291.293L9.999 8.585 1.707.293A1 1 0 10.293 1.707L8.585 10 .293 18.291z"/></symbol><symbol id="icon-logo" viewBox="0 0 245 31">
<path d="M122.005 26.3922H113.752V4.32935H122.005V26.3922ZM114.558 25.5863H121.199V5.13527H114.558V25.5863ZM133.488 26.3922H125.401V4.32935H142.297C144.717 4.13335 147.127 4.81286 149.089 6.24422C149.933 7.01679 150.588 7.97403 151.001 9.04123C151.415 10.1085 151.576 11.2568 151.473 12.3966C151.593 14.3662 150.967 16.3089 149.718 17.8366C148.239 19.5322 145.78 20.4059 142.408 20.4365C141.558 20.4591 135.193 20.4365 133.493 20.4365L133.488 26.3922ZM126.202 25.5863H132.682V19.6225H133.087C133.169 19.6225 141.433 19.6483 142.388 19.6225C145.53 19.5951 147.788 18.8166 149.108 17.2966C150.22 15.9144 150.772 14.1651 150.656 12.395C150.755 11.3737 150.617 10.3433 150.254 9.38367C149.89 8.42406 149.311 7.56105 148.56 6.86156C146.741 5.55612 144.516 4.94335 142.285 5.13366H126.207L126.202 25.5863ZM140.585 15.4801H132.627V9.47435H140.638C141.206 9.39589 141.784 9.46217 142.32 9.66702C142.855 9.87188 143.33 10.2087 143.701 10.6462C144.037 11.2054 144.195 11.8534 144.155 12.5046C144.185 13.1092 144.055 13.711 143.776 14.2486C143.394 14.7094 142.9 15.0641 142.341 15.2787C141.782 15.4932 141.177 15.5603 140.585 15.4736V15.4801ZM133.433 14.6742H140.585C141.907 14.6742 142.725 14.3985 143.088 13.8312C143.288 13.4188 143.378 12.962 143.351 12.5046C143.386 12.0244 143.282 11.5442 143.051 11.1217L143.041 11.1071C142.658 10.543 141.895 10.2803 140.638 10.2803H133.433V14.6742ZM166.181 26.7178C158.944 26.7178 154.624 24.9206 152.978 21.2247C152.709 20.5108 152.526 19.7673 152.433 19.01L152.363 18.5458H160.973L161.029 18.8843C161.096 19.2279 161.242 19.5514 161.455 19.8288C161.795 20.2398 162.93 20.9297 166.695 20.9297C171.221 20.9297 171.221 20.1351 171.221 19.7079C171.221 18.9874 170.697 18.7408 167.006 18.3475L166.305 18.2815C164.916 18.1509 163.159 17.9849 162.356 17.9156C155.586 17.3031 152.564 15.1996 152.564 11.0975C152.564 6.78902 157.707 4.00537 165.668 4.00537C172.162 4.00537 176.347 5.71715 178.102 9.09718C178.518 9.88341 178.798 10.7348 178.929 11.6149L178.985 12.0678H170.365L170.33 11.7035C170.296 11.4188 170.175 11.1518 169.982 10.9395C169.659 10.5075 168.641 9.7935 165.478 9.7935C161.595 9.7935 161.06 10.2899 161.06 10.8251C161.06 11.5391 162.287 11.7922 166.218 12.2129C167.857 12.3467 170.493 12.6174 171.395 12.727C177.07 13.3428 179.603 15.3946 179.603 19.3823C179.604 22.7269 177.275 26.7178 166.181 26.7178ZM153.304 19.3517C153.385 19.8833 153.524 20.4043 153.718 20.9055C155.217 24.2727 159.295 25.9119 166.181 25.9119C171.938 25.9119 178.803 24.7836 178.803 19.3823C178.803 15.8476 176.563 14.0971 171.31 13.5281C170.407 13.4185 167.788 13.1494 166.152 13.014C161.961 12.5594 160.257 12.3176 160.257 10.8251C160.257 9.28093 162.093 8.98758 165.481 8.98758C168.159 8.98758 169.888 9.47113 170.622 10.4463C170.821 10.6865 170.973 10.9636 171.066 11.2619H178.052C177.912 10.6385 177.689 10.0364 177.391 9.47113C175.779 6.378 171.842 4.81129 165.672 4.81129C158.201 4.81129 153.373 7.27902 153.373 11.0975C153.373 14.7402 156.083 16.5391 162.43 17.1129C163.236 17.1822 164.991 17.3482 166.384 17.4804L167.09 17.5465C170.518 17.9075 172.03 18.1332 172.03 19.7079C172.03 21.4036 170.075 21.7356 166.698 21.7356C163.575 21.7356 161.602 21.2666 160.839 20.343C160.604 20.0485 160.427 19.7121 160.317 19.3517H153.304ZM194.915 26.6904C186.501 26.6904 181.859 23.2878 181.859 17.108V4.32935H190.002V17.108C190.002 19.2276 191.899 20.4429 195.205 20.4429C198.365 20.4429 200.326 19.1744 200.326 17.1354V4.32935H208.385V17.785C208.393 23.4442 203.479 26.6904 194.91 26.6904H194.915ZM182.665 5.13527V17.108C182.665 24.7449 190.334 25.8845 194.915 25.8845C199.651 25.8845 207.592 24.832 207.592 17.785V5.13527H201.145V17.1354C201.145 19.6338 198.817 21.2489 195.218 21.2489C191.456 21.2489 189.209 19.7015 189.209 17.108V5.13527H182.665ZM242.537 26.3922H234.852V16.4311L230.493 26.3922H223.79L219.476 16.4504V26.3922H211.764V4.32935H221.909L227.179 16.4939L232.705 4.32935H242.547L242.537 26.3922ZM235.658 25.5863H241.731V5.13527H233.217L227.154 18.4797L221.374 5.13527H212.563V25.5863H218.664V12.5723L224.306 25.5912H229.947L235.648 12.5917L235.658 25.5863ZM9.75805 4.73231H2.41772V25.9893H22.7011V20.3301H9.75805V4.73231ZM37.5172 4.24876C28.1476 4.24876 23.2202 8.68938 23.2202 15.2093C23.2202 22.5754 28.3926 26.3117 37.5172 26.3117C47.5622 26.3117 51.7868 21.979 51.7868 15.2093C51.7868 8.33478 47.0206 4.24554 37.5172 4.24554V4.24876ZM37.4898 9.77254C38.1276 9.76954 38.7651 9.80668 39.3982 9.88376L31.1923 18.0896C30.804 17.2114 30.6146 16.258 30.6379 15.2979C30.6379 11.963 32.3174 9.76932 37.4898 9.76932V9.77254ZM37.5172 20.8749C36.9026 20.8777 36.2885 20.8432 35.6781 20.7718L43.8985 12.5514C44.2723 13.4151 44.4512 14.3507 44.4223 15.2915C44.4223 18.5361 42.875 20.8717 37.5172 20.8717V20.8749ZM66.3305 17.9736H73.8852C73.774 18.4979 73.5422 18.9891 73.2082 19.4081C71.642 20.6841 69.6431 21.305 67.6296 21.1409C66.6161 21.2493 65.5913 21.1386 64.6243 20.8162C63.6574 20.494 62.7709 19.9676 62.0253 19.2727C61.2614 18.1523 60.8986 16.8068 60.9953 15.4543C60.8717 14.0371 61.2662 12.6231 62.1058 11.4746C63.1616 10.2819 64.9491 9.76771 67.5764 9.76771C69.2481 9.6293 70.9176 10.0586 72.3153 10.9863C72.7558 11.3362 73.0851 11.8065 73.263 12.3402H80.2697C80.2188 11.4609 80.0073 10.5983 79.6459 9.79511C77.968 6.38284 74.0673 4.35192 67.4346 4.35192C61.6658 4.35192 57.7942 6.11205 55.6553 8.76675C54.2426 10.6838 53.5175 13.0211 53.5969 15.4011C53.5055 17.835 54.212 20.2319 55.6085 22.2272C57.7216 24.9674 61.4853 26.3149 66.0081 26.3149C69.015 26.5246 72.0014 25.6824 74.4558 23.9326L74.646 25.9893H80.4663V13.3976H66.3305V17.9736ZM96.9861 4.24392C87.6181 4.24392 82.6891 8.68455 82.6891 15.2045C82.6891 22.5706 87.8599 26.3068 96.9861 26.3068C107.033 26.3068 111.257 21.9742 111.257 15.2045C111.257 8.33478 106.491 4.24554 96.9861 4.24554V4.24392ZM96.9603 9.76771C97.5814 9.76587 98.2019 9.80139 98.8188 9.87409L90.6451 18.0526C90.2689 17.184 90.0858 16.2443 90.1084 15.2979C90.1019 11.963 91.7879 9.76932 96.9603 9.76932V9.76771ZM96.9861 20.8701C96.3552 20.8728 95.7248 20.8361 95.0986 20.7605L103.346 12.5111C103.734 13.3863 103.92 14.3378 103.89 15.2947C103.893 18.5361 102.352 20.8717 96.9861 20.8717V20.8701Z" fill="white"/>
</symbol><symbol id="icon-next" viewBox="0 0 11 8">
  <path d="M10.3536 4.35355C10.5488 4.15829 10.5488 3.84171 10.3536 3.64645L7.17157 0.464465C6.97631 0.269203 6.65973 0.269203 6.46447 0.464466C6.2692 0.659728 6.2692 0.97631 6.46447 1.17157L9.29289 4L6.46447 6.82843C6.2692 7.02369 6.2692 7.34027 6.46447 7.53553C6.65973 7.7308 6.97631 7.7308 7.17157 7.53553L10.3536 4.35355ZM4.37114e-08 4.5L10 4.5L10 3.5L-4.37114e-08 3.5L4.37114e-08 4.5Z" fill="#0A3B93"/>
</symbol><symbol id="icon-play" viewBox="0 0 68 44">
  <g clip-path="url(#clip0_104_6)">
    <path d="M65.9478 6.84455C65.5657 5.52467 64.8203 4.32139 63.7859 3.35451C62.7516 2.38763 61.4642 1.6909 60.0522 1.33369C54.8826 0.0158691 34.0769 0.0158691 34.0769 0.0158691C34.0769 0.0158691 13.2701 0.0557588 8.10058 1.37358C6.68849 1.73081 5.40116 2.42758 4.36678 3.3945C3.3324 4.36143 2.58707 5.56476 2.20501 6.88468C0.641341 15.4702 0.0347655 28.5526 2.24795 36.7947C2.63005 38.1145 3.3754 39.3178 4.40977 40.2847C5.44415 41.2516 6.73146 41.9483 8.14352 42.3055C13.3131 43.6233 34.1193 43.6233 34.1193 43.6233C34.1193 43.6233 54.9253 43.6233 60.0946 42.3055C61.5067 41.9483 62.7941 41.2516 63.8285 40.2847C64.8629 39.3179 65.6083 38.1146 65.9904 36.7947C67.6397 28.197 68.1479 15.1229 65.9478 6.84479V6.84455Z" fill="currentColor"/>
    <path d="M27.4584 31.1639L44.7186 21.8195L27.4586 12.4751L27.4584 31.1639Z" fill="white"/>
  </g>
  
</symbol><symbol id="icon-plus" viewBox="0 0 16 16">
<path fill-rule="evenodd" clip-rule="evenodd" d="M8.50251 0.5C8.50251 0.223858 8.27866 0 8.00251 0C7.72637 0 7.50251 0.223858 7.50251 0.5V7.50051H0.5C0.223858 7.50051 0 7.72437 0 8.00051C0 8.27666 0.223858 8.50051 0.5 8.50051H7.50251V15.5C7.50251 15.7761 7.72637 16 8.00251 16C8.27866 16 8.50251 15.7761 8.50251 15.5V8.50051H15.5C15.7761 8.50051 16 8.27666 16 8.00051C16 7.72437 15.7761 7.50051 15.5 7.50051H8.50251V0.5Z" fill="currentColor"/>
</symbol><symbol id="icon-prev" viewBox="0 0 11 8">
  <path d="M0.646447 3.64645C0.451184 3.84171 0.451184 4.15829 0.646447 4.35355L3.82843 7.53553C4.02369 7.7308 4.34027 7.7308 4.53553 7.53553C4.7308 7.34027 4.7308 7.02369 4.53553 6.82843L1.70711 4L4.53553 1.17157C4.7308 0.976311 4.7308 0.659728 4.53553 0.464466C4.34027 0.269204 4.02369 0.269204 3.82843 0.464466L0.646447 3.64645ZM11 3.5L1 3.5V4.5L11 4.5V3.5Z" fill="#0A3B93"/>
</symbol></svg>